<svg width="195" height="44" viewBox="0 0 195 44" fill="none" xmlns="http://www.w3.org/2000/svg">
<path d="M0.531534 38.6296C1.11327 37.1753 1.93135 35.4846 2.98575 33.5576C4.07652 31.6306 5.02184 30.0671 5.82174 28.8673L7.02158 27.1221C7.5306 26.3949 8.03962 26.0313 8.54865 26.0313C8.94859 26.0313 9.14857 26.2313 9.14857 26.6312L8.98495 27.1766C7.67604 30.4853 7.02158 33.3394 7.02158 35.7391C7.02158 37.6661 7.4397 39.2477 8.27596 40.4839C9.14857 41.6838 10.4938 42.2837 12.3118 42.2837C15.0387 42.2837 17.2384 41.102 18.9109 38.7387C20.5834 36.339 21.4197 33.7576 21.4197 30.9943C21.4197 28.631 20.6016 25.2678 18.9654 20.9047C17.3657 16.5053 16.5658 13.5239 16.5658 11.9605C16.5658 8.57909 18.0019 5.87037 20.8743 3.83427C23.783 1.76182 26.9644 0.725595 30.4185 0.725595C31.0366 0.725595 31.6365 0.761955 32.2182 0.834673C32.8363 0.90739 33.509 1.03465 34.2361 1.21644C34.9633 1.36187 35.545 1.61639 35.9814 1.97997C36.4177 2.34356 36.6358 2.79805 36.6358 3.34343C36.6358 4.0706 36.1268 5.3068 35.1087 7.05203C34.0907 8.79725 33.2363 10.1243 32.5454 11.0333C32.2909 11.2151 32.0728 11.306 31.891 11.306C31.6365 11.306 31.5092 11.0878 31.5092 10.6515C31.5092 9.6335 31.6183 8.25187 31.8365 6.50664C31.8365 3.67066 30.7457 2.25266 28.5642 2.25266C26.7099 2.25266 25.1283 2.88894 23.8193 4.1615C22.5468 5.43406 21.9105 6.97931 21.9105 8.79725C21.9105 11.1969 22.7468 14.5419 24.4193 18.8323C26.1281 23.1226 26.9826 26.4313 26.9826 28.7582C26.9826 33.1213 25.2555 36.7208 21.8014 39.5568C18.3837 42.3564 14.5297 43.7562 10.2393 43.7562C9.51215 43.7562 8.63954 43.6835 7.6215 43.5381C6.60345 43.3926 5.53087 43.1563 4.40375 42.8291C3.27662 42.5382 2.33129 42.1019 1.56776 41.5202C0.767867 40.9021 0.36792 40.2112 0.36792 39.4477C0.36792 39.1568 0.422458 38.8841 0.531534 38.6296Z" fill="#C8C5B2" fill-opacity="0.3"/>
<path d="M33.2144 37.1026C28.9604 41.102 26.2335 43.1018 25.0337 43.1018C24.4156 43.1018 24.1065 42.6836 24.1065 41.8474C24.1065 41.0111 24.4337 39.7931 25.0882 38.1933C25.7427 36.5935 26.3971 35.1937 27.0516 33.9939L28.0333 32.2487C30.7965 27.4129 32.8872 23.9407 34.3052 21.8319C34.9233 20.9229 35.705 20.1594 36.6503 19.5413C37.632 18.8868 38.541 18.5596 39.3772 18.5596C39.6681 18.5596 39.8135 18.6868 39.8135 18.9413C39.8135 19.1231 39.6863 19.4685 39.4317 19.9776C38.9954 20.7775 37.9229 22.6863 36.214 25.7041C34.5051 28.7219 33.4871 30.5398 33.1599 31.1579C31.6691 33.7757 30.9238 35.521 30.9238 36.3936C30.9238 36.7208 31.0329 36.8844 31.251 36.8844C31.6146 36.8844 32.7781 35.9754 34.7415 34.1575C36.2685 32.6304 38.2864 30.4307 40.7952 27.5584C40.9043 27.4493 40.9952 27.3948 41.0679 27.3948C41.1406 27.3948 41.177 27.4675 41.177 27.6129C41.177 28.3037 40.9043 28.9764 40.3589 29.6308C37.6683 32.6122 35.2868 35.1028 33.2144 37.1026ZM40.468 15.4509C39.559 15.4509 39.1045 14.9055 39.1045 13.8148C39.1045 12.7967 39.4863 11.7787 40.2498 10.7606C41.0134 9.70622 41.8496 9.17901 42.7586 9.17901C43.8493 9.17901 44.3947 9.79711 44.3947 11.0333C44.3947 12.0514 43.9766 13.0512 43.1403 14.0329C42.3041 14.9782 41.4133 15.4509 40.468 15.4509Z" fill="#C8C5B2" fill-opacity="0.3"/>
<path d="M52.774 37.1026C48.52 41.102 45.7204 43.1018 44.3751 43.1018C43.757 43.1018 43.448 42.7745 43.448 42.1201C43.448 41.7201 43.5389 41.2293 43.7207 40.6475C43.9025 40.0294 44.1206 39.4295 44.3751 38.8478C44.666 38.2297 44.9387 37.6661 45.1932 37.1571C45.4477 36.6481 45.7022 36.1754 45.9567 35.7391C46.2112 35.3028 46.3385 35.0665 46.3385 35.0301C46.8839 34.0484 47.7019 32.685 48.7927 30.9397C49.8835 29.1582 50.7561 27.7038 51.4105 26.5767C52.065 25.4132 52.3922 24.7042 52.3922 24.4497C52.3922 24.2679 52.3013 24.177 52.1195 24.177L51.356 24.4497C49.6835 25.6495 47.6838 27.522 45.3568 30.0671C43.0298 32.5759 41.121 34.7938 39.6303 36.7208L37.3942 39.5568C36.9216 40.2476 36.5034 40.8112 36.1399 41.2475C35.7763 41.6838 35.2491 42.1019 34.5582 42.5018C33.9038 42.9381 33.2311 43.1563 32.5403 43.1563C32.0313 43.1563 31.7768 43.0109 31.7768 42.72C31.7768 42.4291 32.1222 41.5929 32.813 40.2112C33.5038 38.7932 34.1947 37.448 34.8855 36.1754L35.9217 34.3211L41.2664 24.9405C41.8118 24.0316 42.2481 23.3408 42.5754 22.8681C42.9389 22.3591 43.4298 21.741 44.0479 21.0138C44.666 20.2503 45.3204 19.6867 46.0113 19.3231C46.7384 18.9595 47.502 18.7414 48.3019 18.6687C48.5927 18.6687 48.7382 18.7959 48.7382 19.0504C48.7382 19.2686 48.6836 19.4504 48.5746 19.5958C47.7383 20.9047 46.4476 23.0681 44.7023 26.0858C42.9935 29.1036 41.9027 31.067 41.4301 31.976C41.321 32.1941 41.2664 32.3577 41.2664 32.4668C41.2664 32.5395 41.3028 32.5759 41.3755 32.5759C41.4482 32.5759 41.63 32.4668 41.9209 32.2487C42.6117 31.4488 43.5025 30.4489 44.5933 29.2491C45.7204 28.0492 47.611 26.2495 50.2652 23.8498C52.9194 21.4137 55.101 19.7776 56.8098 18.9413C57.2098 18.7596 57.5915 18.6687 57.9551 18.6687C58.4641 18.6687 58.7187 18.9595 58.7187 19.5413C58.4278 21.2501 57.028 24.177 54.5192 28.3219C51.756 32.8668 50.3743 35.5573 50.3743 36.3936C50.3743 36.6844 50.5016 36.8299 50.7561 36.8299C50.9379 36.8299 51.1379 36.7753 51.356 36.6663C51.6105 36.5208 51.8832 36.339 52.1741 36.1209C52.465 35.8664 52.7013 35.6482 52.8831 35.4664C53.1012 35.2846 53.3739 35.0483 53.7011 34.7574C54.0284 34.4302 54.2284 34.2302 54.3011 34.1575C55.8281 32.6304 57.846 30.4307 60.3548 27.5584C60.4639 27.4493 60.5548 27.3948 60.6275 27.3948C60.7002 27.3948 60.7366 27.4675 60.7366 27.6129C60.7366 28.3037 60.4639 28.9764 59.9185 29.6308C57.2279 32.6122 54.8464 35.1028 52.774 37.1026Z" fill="#C8C5B2" fill-opacity="0.3"/>
<path d="M67.3851 37.1026C65.749 38.666 63.8947 40.1385 61.8222 41.5202C59.7861 42.8654 58.0591 43.5381 56.6411 43.5381C54.9686 43.5381 54.1323 42.2473 54.1323 39.6659C54.1323 36.9389 55.0958 33.9212 57.0229 30.6125C58.9499 27.2675 61.3859 24.4133 64.331 22.05C67.3124 19.6867 70.1302 18.505 72.7844 18.505C74.2024 18.505 74.9114 19.0322 74.9114 20.0866C74.9114 21.9046 73.7297 23.9589 71.3664 26.2495C71.1483 26.4676 70.6756 26.8494 69.9484 27.3948C69.2212 27.9401 68.7122 28.2128 68.4213 28.2128C68.2395 28.2128 68.1487 28.1219 68.1487 27.9401L68.3123 27.4493C69.7666 24.8678 70.4938 22.9045 70.4938 21.5592C70.4938 20.832 70.2575 20.4684 69.7848 20.4684C68.6577 20.4684 67.2215 21.5774 65.4763 23.7952C63.7674 25.9768 62.2767 28.4855 61.0041 31.3215C59.7316 34.1211 59.0953 36.339 59.0953 37.9752C59.0953 39.2841 59.568 39.9385 60.5133 39.9385C62.1495 39.9385 64.2037 38.7569 66.6761 36.3936C68.6031 34.612 71.3664 31.6669 74.9659 27.5584C75.075 27.4493 75.1659 27.3948 75.2386 27.3948C75.3113 27.3948 75.3477 27.4675 75.3477 27.6129C75.3477 28.3037 75.075 28.9764 74.5296 29.6308C71.8391 32.6122 69.4576 35.1028 67.3851 37.1026Z" fill="#C8C5B2" fill-opacity="0.3"/>
<path d="M83.6967 23.9043C84.133 22.9954 84.3512 22.1955 84.3512 21.5046C84.3512 20.9229 84.1694 20.632 83.8058 20.632C83.5876 20.632 83.3331 20.7048 83.0423 20.8502C82.7878 20.9593 82.5878 21.0865 82.4423 21.232L82.1696 21.4501C81.0425 22.4318 79.6245 24.2315 77.9157 26.8494C76.2432 29.4309 75.4069 31.0852 75.4069 31.8124C75.4069 31.9578 75.4433 32.0305 75.516 32.0305C75.7341 32.0305 76.2068 31.8487 76.934 31.4851C77.6975 31.1215 78.7701 30.2671 80.1517 28.9218C81.5697 27.5766 82.7514 25.9041 83.6967 23.9043ZM81.2425 36.3936C83.1695 34.612 85.9328 31.6669 89.5323 27.5584C89.6414 27.4493 89.7323 27.3948 89.805 27.3948C89.8777 27.3948 89.9141 27.4675 89.9141 27.6129C89.9141 28.3037 89.6414 28.9764 89.096 29.6308C86.4054 32.6122 84.0239 35.1028 81.9515 37.1026C80.4244 38.6296 78.6065 40.1022 76.4977 41.5202C74.3889 42.9018 72.6436 43.5926 71.262 43.5926C69.5895 43.5926 68.7533 42.4291 68.7533 40.1022C68.7533 36.2481 70.1712 32.2123 73.0072 27.9947C75.8796 23.7771 79.1882 20.9229 82.9332 19.4322C84.4966 18.7777 85.9146 18.4505 87.1872 18.4505C88.6052 18.4505 89.3141 19.0141 89.3141 20.1412C89.3141 22.25 87.8234 24.6679 84.842 27.3948C81.8606 30.1217 78.5156 32.1941 74.807 33.6121C74.6616 33.6485 74.5343 33.7757 74.4252 33.9939C73.8798 35.4846 73.6072 36.8117 73.6072 37.9752C73.6072 39.2841 74.098 39.9385 75.0797 39.9385C76.6431 39.9385 78.6974 38.7569 81.2425 36.3936Z" fill="#C8C5B2" fill-opacity="0.3"/>
<path d="M111.5 35.0846C110.846 36.8299 110.191 38.2842 109.537 39.4477C108.882 40.6112 108.391 41.3384 108.064 41.6292L107.573 42.0655C107.101 42.5018 105.465 42.72 102.665 42.72C102.083 42.72 101.102 42.7018 99.7199 42.6655C98.3382 42.6291 97.1748 42.6109 96.2294 42.6109C94.9569 42.6109 93.3571 42.6291 91.4301 42.6655C89.4667 42.7018 88.3941 42.72 88.2123 42.72C87.7033 42.72 87.4488 42.52 87.4488 42.1201L87.7215 41.1929C88.7395 39.7022 90.6847 37.5934 93.5571 34.8665C96.4294 32.1032 99.0472 29.7399 101.411 27.7765L104.956 24.7769C106.41 23.5407 107.592 22.5045 108.501 21.6683C109.446 20.832 110.773 19.5594 112.482 17.8506C114.191 16.1417 115.5 14.5056 116.409 12.9421C117.318 11.3424 117.772 9.90619 117.772 8.63363C117.772 7.50651 117.372 6.61572 116.572 5.96126C115.772 5.27044 114.791 4.92504 113.627 4.92504C112.355 4.92504 111.1 5.32498 109.864 6.12488C108.664 6.88841 107.773 7.65194 107.192 8.41548L106.319 9.56078C105.992 10.0334 105.701 10.2698 105.446 10.2698C105.119 10.2698 104.956 10.0334 104.956 9.56078C104.956 9.41535 105.01 9.08812 105.119 8.5791C105.265 8.03371 105.574 7.28836 106.046 6.34303C106.519 5.3977 107.101 4.50691 107.792 3.67066C108.519 2.83441 109.555 2.10723 110.9 1.48913C112.245 0.871032 113.773 0.561983 115.481 0.561983C117.59 0.561983 119.481 1.07101 121.153 2.08905C122.826 3.1071 123.662 4.67052 123.662 6.77933C123.662 11.2151 120.463 15.6145 114.063 19.9776C111.918 21.3592 108.428 24.1588 103.592 28.3765C98.7564 32.5577 96.3385 35.3573 96.3385 36.7753C96.3385 37.2116 96.5748 37.448 97.0475 37.4843C98.3201 37.7025 99.7744 37.8116 101.411 37.8116C105.846 37.8116 108.81 36.7935 110.3 34.7574C110.555 34.3938 110.827 34.212 111.118 34.212C111.446 34.212 111.609 34.3757 111.609 34.7029C111.609 34.812 111.573 34.9392 111.5 35.0846Z" fill="#C8C5B2" fill-opacity="0.3"/>
<path d="M140.929 2.52536C138.42 2.52536 135.548 4.50691 132.312 8.47002C129.112 12.4331 126.404 17.0507 124.186 22.3227C122.004 27.5584 120.913 32.0123 120.913 35.6846C120.913 39.1387 122.004 40.8657 124.186 40.8657C126.44 40.8657 128.822 39.5204 131.33 36.8299C133.839 34.103 136.021 30.9034 137.875 27.2312C139.729 23.5226 141.274 19.814 142.511 16.1054C143.747 12.3968 144.365 9.50624 144.365 7.43379C144.365 4.1615 143.22 2.52536 140.929 2.52536ZM142.674 0.61652C144.819 0.61652 146.456 1.36188 147.583 2.85259C148.746 4.3433 149.328 6.37939 149.328 8.96086C149.328 12.3059 148.401 16.0326 146.546 20.1412C144.729 24.2134 142.456 27.9583 139.729 31.3761C137.039 34.7574 134.003 37.6116 130.621 39.9385C127.276 42.2291 124.186 43.3745 121.35 43.3745C119.386 43.3745 117.896 42.6473 116.878 41.1929C115.86 39.7022 115.351 37.6661 115.351 35.0846C115.351 32.4305 116.005 29.1945 117.314 25.3769C118.659 21.5592 120.604 17.7051 123.15 13.8148C125.695 9.92437 128.422 6.90659 131.33 4.76142C135.075 1.99815 138.857 0.61652 142.674 0.61652Z" fill="#C8C5B2" fill-opacity="0.3"/>
<path d="M158.744 35.0846C158.089 36.8299 157.435 38.2842 156.78 39.4477C156.126 40.6112 155.635 41.3384 155.308 41.6292L154.817 42.0655C154.344 42.5018 152.708 42.72 149.909 42.72C149.327 42.72 148.345 42.7018 146.964 42.6655C145.582 42.6291 144.418 42.6109 143.473 42.6109C142.201 42.6109 140.601 42.6291 138.674 42.6655C136.71 42.7018 135.638 42.72 135.456 42.72C134.947 42.72 134.692 42.52 134.692 42.1201L134.965 41.1929C135.983 39.7022 137.928 37.5934 140.801 34.8665C143.673 32.1032 146.291 29.7399 148.654 27.7765L152.199 24.7769C153.654 23.5407 154.835 22.5045 155.744 21.6683C156.69 20.832 158.017 19.5594 159.725 17.8506C161.434 16.1417 162.743 14.5056 163.652 12.9421C164.561 11.3424 165.016 9.90619 165.016 8.63363C165.016 7.50651 164.616 6.61572 163.816 5.96126C163.016 5.27044 162.034 4.92504 160.871 4.92504C159.598 4.92504 158.344 5.32498 157.108 6.12488C155.908 6.88841 155.017 7.65194 154.435 8.41548L153.563 9.56078C153.235 10.0334 152.945 10.2698 152.69 10.2698C152.363 10.2698 152.199 10.0334 152.199 9.56078C152.199 9.41535 152.254 9.08812 152.363 8.5791C152.508 8.03371 152.817 7.28836 153.29 6.34303C153.763 5.3977 154.344 4.50691 155.035 3.67066C155.762 2.83441 156.799 2.10723 158.144 1.48913C159.489 0.871032 161.016 0.561983 162.725 0.561983C164.834 0.561983 166.725 1.07101 168.397 2.08905C170.07 3.1071 170.906 4.67052 170.906 6.77933C170.906 11.2151 167.706 15.6145 161.307 19.9776C159.162 21.3592 155.671 24.1588 150.836 28.3765C146 32.5577 143.582 35.3573 143.582 36.7753C143.582 37.2116 143.819 37.448 144.291 37.4843C145.564 37.7025 147.018 37.8116 148.654 37.8116C153.09 37.8116 156.053 36.7935 157.544 34.7574C157.798 34.3938 158.071 34.212 158.362 34.212C158.689 34.212 158.853 34.3757 158.853 34.7029C158.853 34.812 158.817 34.9392 158.744 35.0846Z" fill="#C8C5B2" fill-opacity="0.3"/>
<path d="M185.844 26.1404C184.681 28.2856 182.899 29.4854 180.499 29.7399C179.918 29.8126 179.081 29.8853 177.991 29.9581L172.591 40.1567C171.937 41.1747 170.992 42.0474 169.755 42.7745C168.556 43.5017 167.428 43.8653 166.374 43.8653C165.938 43.8653 165.72 43.629 165.72 43.1563L165.774 42.72C166.32 41.5202 168.646 37.3025 172.755 30.0671H171.282L160.593 29.7399C159.866 29.7035 159.502 29.3945 159.502 28.8128L159.72 27.9947C160.302 27.3402 161.102 26.4676 162.12 25.3769C163.174 24.2497 165.156 22.2318 168.065 19.3231C171.01 16.3781 173.791 13.7239 176.409 11.3605C179.027 8.99722 181.899 6.68844 185.026 4.43419C188.153 2.17995 190.753 0.725597 192.825 0.071139C193.043 0.0347807 193.261 0.0166016 193.48 0.0166016C194.207 0.0166016 194.57 0.252933 194.57 0.725595C194.57 0.907389 194.534 1.071 194.461 1.21644C194.243 1.6891 193.407 3.16164 191.952 5.63403C190.534 8.10643 188.662 11.3424 186.335 15.3418C184.008 19.3413 182.045 22.7408 180.445 25.5405C181.245 25.5041 182.026 25.4678 182.79 25.4314C183.554 25.3587 184.153 25.3041 184.59 25.2678C185.062 25.1951 185.372 25.1587 185.517 25.1587C185.881 25.1587 186.062 25.286 186.062 25.5405C186.062 25.6859 185.99 25.8859 185.844 26.1404ZM186.335 6.77933C186.48 6.48846 186.553 6.27031 186.553 6.12488C186.553 5.97944 186.48 5.90672 186.335 5.90672L185.735 6.12488C182.608 8.27005 179.463 10.797 176.3 13.7057C173.173 16.578 170.81 18.9413 169.21 20.7956L166.81 23.5226C166.556 23.8134 166.429 24.1043 166.429 24.3952C166.429 24.7588 166.701 24.9951 167.247 25.1042C169.537 25.395 172.228 25.5586 175.318 25.595L186.335 6.77933Z" fill="#C8C5B2" fill-opacity="0.3"/>
</svg>
