<svg width="226" height="206" viewBox="0 0 226 206" fill="none" xmlns="http://www.w3.org/2000/svg">
<path d="M152.325 40.0508C144.76 36.283 135.765 37.9036 127.863 35.2702C118.154 31.9886 117.524 19.3483 107.52 17.1201C104.171 16.7003 100.771 16.8511 97.475 17.5657C94.3143 18.323 90.9793 18.0072 88.0319 16.6715C85.0845 15.3358 82.7046 13.062 81.2931 10.2327C77.6364 4.56081 72.8869 -2.65064 64.859 2.12998C58.7645 5.69519 58.2181 12.3799 58.9327 18.619C58.2662 18.2305 57.5625 17.9049 56.8311 17.6467C43.5493 13.2307 38.5477 27.8156 40.0187 37.9036C41.8261 49.612 47.0799 60.4697 32.8735 67.3571C26.9471 70.193 21.7773 73.0695 20.2642 79.7543C19.6764 82.3025 19.6764 84.9442 20.2642 87.4924C14.2958 85.2642 7.65492 85.0211 2.98949 90.1258C1.29087 91.9088 0.253856 94.1847 0.0408888 96.5967C-0.172078 99.0087 0.451043 101.421 1.81263 103.455C4.17577 106.175 7.21111 108.279 10.6391 109.572C14.2088 110.862 17.1877 113.332 19.0453 116.541C20.5858 119.698 21.028 123.25 20.3062 126.669C19.5077 132.868 17.9105 140.241 22.4918 145.508C24.7985 147.831 27.944 149.209 31.2763 149.357C38.5477 150.41 42.6247 152.274 44.9784 159.404C47.164 165.887 48.2148 173.341 55.8644 175.893C65.2373 178.972 73.7696 172.166 82.8483 171.599C93.7343 170.91 99.4084 181.889 109.916 181.971C116.011 181.971 121.517 178.162 127.695 179.013C133.874 179.864 140.136 184.158 145.727 187.44C157.425 194.686 170.674 199.285 184.479 200.89C184.602 200.928 184.734 200.928 184.857 200.89C194.987 204.942 205.873 207.697 216.086 203.929C222.329 201.235 227.605 196.819 231.248 191.238C234.891 185.658 236.737 179.162 236.555 172.571C236.406 164.317 233.983 156.25 229.536 149.195C229.758 149.113 229.949 148.969 230.084 148.781C230.219 148.593 230.291 148.37 230.293 148.142C230.293 147.898 230.293 147.696 230.293 147.453C230.293 147.453 230.293 147.453 230.293 147.25C230.162 145.626 229.837 144.022 229.326 142.47C229.326 141.902 228.822 141.335 228.569 140.809C228.317 140.282 228.569 140.809 228.569 140.525C222.013 119.66 187.842 124.319 186.539 100.335C186.694 96.8416 186.018 93.3598 184.561 90.1574C183.103 86.9549 180.904 84.1169 178.132 81.861C173.63 78.7626 169.659 75.0032 166.364 70.7197C164.096 65.8023 162.677 60.5611 162.161 55.203C161.877 52.1086 160.839 49.1226 159.129 46.4892C157.42 43.8557 155.089 41.6495 152.325 40.0508ZM145.348 183.551C136.564 178.284 130.133 173.382 119.415 176.137C112.48 177.919 107.857 178.77 101.258 174.881C97.538 172.027 93.3655 169.77 88.9007 168.196C77.132 165.562 64.6909 178.365 54.0991 170.667C46.8277 165.4 49.2655 154.867 42.2464 149.357C38.8419 146.683 34.933 147.048 30.856 146.237C20.5164 144.131 21.8614 135.461 22.8281 127.723C23.7528 120.754 23.7948 114.313 17.5742 109.653C12.4465 105.602 5.80557 105.602 3.78808 98.9173C0.551703 88.4648 13.1189 87.0063 21.1468 88.5863C21.6591 90.2089 22.4397 91.7411 23.4586 93.1238C25.2553 95.3637 27.6536 97.0869 30.3937 98.107C31.2343 98.4716 32.159 98.6742 33.0416 98.9983C34.4984 99.3553 35.8605 100.005 37.0389 100.904C38.2173 101.804 39.1853 102.933 39.8797 104.218C40.574 105.503 40.979 106.915 41.0682 108.361C41.1573 109.808 40.9286 111.256 40.397 112.611C38.968 118.08 35.4374 122.982 35.6896 128.816C35.684 130.23 35.968 131.63 36.5253 132.937C37.0826 134.245 37.9021 135.433 38.937 136.434C39.9718 137.436 41.2015 138.23 42.5556 138.772C43.9097 139.314 45.3615 139.593 46.8277 139.593C55.9485 140.12 62.5053 132.301 71.3738 132.058C75.1399 132.008 78.8024 133.247 81.7109 135.554C84.6195 137.86 86.5861 141.086 87.2615 144.657C87.7109 147.998 88.6154 151.268 89.9515 154.381C91.1747 156.484 93.0438 158.17 95.3017 159.207C97.5596 160.245 100.096 160.583 102.561 160.174C107.193 159.253 111.911 158.791 116.641 158.797C119.769 159.186 122.777 160.207 125.468 161.795C128.032 164.225 130.679 166.575 133.369 168.885C144.651 178.735 157.177 187.175 170.651 194.003L172.836 195.097C163.231 192.313 154.003 188.437 145.348 183.551ZM232.604 164.185C235.715 177.879 229.999 193.476 216.086 199.513C202.174 205.549 185.446 197.69 172.794 191.613C157.666 184.254 143.548 175.109 130.764 164.387C124.333 156.73 115.17 156.042 104.41 156.892C97.2228 157.46 92.4313 155.312 90.8341 148.101C90.404 145.364 89.7862 142.657 88.9848 139.998C88.0411 137.53 86.5692 135.28 84.6648 133.396C82.7603 131.511 80.466 130.034 77.9306 129.06C75.3036 128.143 72.5066 127.766 69.7195 127.955C66.9324 128.143 64.2172 128.892 61.7487 130.153C58.1462 132.144 54.3077 133.708 50.3163 134.813C44.8943 135.704 38.7578 134.812 39.6825 125.778C40.2816 123.325 41.17 120.946 42.3304 118.688C45.9451 109.37 45.9871 99.9302 35.6475 95.3521C29.4269 92.5566 23.0382 91.3007 23.6687 82.6713C24.089 76.2701 29.553 73.7583 34.6808 71.2464C37.4707 70.2589 39.9733 68.6392 41.9777 66.5239C43.982 64.4086 45.4292 61.8598 46.1973 59.0923C46.9704 52.8777 46.3395 46.5755 44.3479 40.618C42.6227 35.9164 42.7573 30.7665 44.7262 26.1546C45.4389 24.9081 46.4359 23.8339 47.6421 23.013C48.8483 22.1921 50.2322 21.646 51.6893 21.4158C53.1464 21.1856 54.6387 21.2774 56.0536 21.6842C57.4686 22.091 58.7692 22.8023 59.8573 23.7643C59.8573 23.7643 59.8573 23.9669 60.1095 23.7643C60.7398 24.2319 61.3432 24.7323 61.9169 25.2633C70.7433 33.9738 71.9623 53.6229 88.6906 52.2049C94.743 51.7188 99.9128 47.9105 105.923 47.4243C108.597 47.1396 111.292 47.7272 113.578 49.0934C115.864 50.4595 117.608 52.5252 118.533 54.9599C119.835 59.0113 117.902 62.8601 118.28 66.7899C118.28 67.8747 118.505 68.9486 118.943 69.9479C119.382 70.9471 120.023 71.8514 120.831 72.6071C121.638 73.3627 122.595 73.9544 123.644 74.347C124.693 74.7396 125.814 74.9252 126.939 74.8926C135.051 74.8926 142.028 63.9134 149.888 70.8413C159.597 79.2681 149.551 104.873 166.7 107.992C192.087 121.686 225.753 134.083 232.604 164.185ZM158.126 48.9639C162.329 57.0666 160.395 66.4252 165.985 73.9203C168.969 77.3502 172.354 80.4362 176.073 83.1169C182.588 88.6268 183.765 93.9341 184.479 101.956C186.328 124.198 215.834 121.889 224.997 138.216C224.997 138.216 224.997 138.459 224.997 138.54C225.293 139.463 225.732 140.337 226.3 141.133C226.3 141.133 226.3 141.335 226.3 141.457V141.781C226.493 142.162 226.662 142.554 226.804 142.956C226.793 143.104 226.793 143.253 226.804 143.401C226.804 143.401 226.804 143.726 226.804 143.928C226.804 144.131 227.224 145.468 227.435 146.237C224.375 141.767 220.746 137.683 216.633 134.083C209.198 127.879 200.996 122.586 192.213 118.323C188.01 116.095 183.344 113.948 178.847 111.841C175.232 110.14 171.449 108.6 167.919 106.736C159.092 102.037 158.042 93.1643 157.159 84.4539C156.444 77.1614 155.562 67.9243 147.702 64.4806C141.523 61.7662 136.9 65.8581 131.646 68.532C129.575 69.811 127.117 70.3817 124.669 70.1525C119.92 68.7751 121.349 64.4806 121.643 61.6041C122.13 58.7806 121.958 55.888 121.138 53.1368C120.384 50.97 119.151 48.9863 117.526 47.322C115.901 45.6576 113.922 44.3518 111.723 43.4945C104.452 40.8206 97.8953 45.034 91.0443 46.8166C72.0043 51.7593 71.9622 26.0736 59.0588 18.457C58.3686 14.7877 58.8982 11.0019 60.5719 7.6398C61.125 6.33352 62.0095 5.18205 63.1443 4.29093C64.2792 3.39982 65.6279 2.7976 67.067 2.53954C68.506 2.28147 69.9893 2.3758 71.3806 2.81389C72.772 3.25198 74.027 4.01979 75.0305 5.04692C78.393 8.36905 79.5698 13.1497 82.9744 16.6339C88.7326 22.2247 95.5836 19.5103 102.729 19.1862C114.582 18.6596 116.515 34.0953 127.149 37.5795C137.783 41.0637 152.367 37.701 158.126 48.9639Z" fill="black" fill-opacity="0.3"/>
<path d="M145.012 120.754C145.012 120.754 145.012 120.754 145.012 120.957C149.17 127.613 151.7 135.095 152.409 142.834C142.742 136.96 133.369 130.68 124.291 123.833C124.335 123.674 124.335 123.506 124.291 123.347C124.997 114.015 121.992 104.773 115.884 97.4994C115.632 97.2158 115.38 97.7425 115.548 97.9451C118.357 101.523 120.478 105.557 121.811 109.856C123.048 114.179 123.559 118.666 123.324 123.145C119.121 119.944 114.918 116.703 110.715 113.34C110.715 112.814 110.294 112.327 109.79 112.368H109.538C102.098 106.291 94.7849 100.214 87.8498 93.4885C87.2194 92.8808 86.8411 94.0963 87.2614 94.5419C93.44 100.781 99.8707 106.696 106.512 112.408C97.2752 112.675 88.0993 110.887 79.6959 107.182C79.3596 107.182 79.2756 107.628 79.6959 107.749C88.7549 112.371 98.8683 114.739 109.118 114.637C116.683 121.065 124.501 127.21 132.571 133.07C125.052 135.707 116.893 136.144 109.118 134.326C108.781 134.326 108.823 134.894 109.118 134.975C117.096 137.258 125.601 137.187 133.537 134.772C133.682 134.729 133.808 134.643 133.899 134.527C133.99 134.411 134.04 134.269 134.042 134.124C139.674 138.175 145.39 142.024 151.317 145.711C154.343 147.574 157.453 149.479 160.647 151.342C155.328 153.617 149.64 154.988 143.835 155.394C143.583 155.394 143.835 155.961 143.835 155.961C150.312 156.031 156.744 154.917 162.791 152.679C182.349 164.819 203.57 174.268 225.837 180.755C227.435 181.16 227.477 178.203 226.3 177.676C213.985 172.369 201.081 168.155 188.976 162.483C180.948 158.756 173.131 154.624 165.397 150.329C165.348 150.181 165.243 150.057 165.102 149.982C164.962 149.907 164.796 149.886 164.64 149.924C160.984 147.858 157.327 145.873 153.754 143.685C153.82 143.529 153.82 143.355 153.754 143.199C152.912 135.113 149.899 127.377 145.012 120.754Z" fill="black" fill-opacity="0.3"/>
</svg>
