<svg width="190" height="191" viewBox="0 0 190 191" fill="none" xmlns="http://www.w3.org/2000/svg">
<path d="M23.7787 119.315C23.4454 118.129 23.4443 116.879 23.7756 115.692C24.1068 114.506 24.7587 113.425 25.6646 112.56C23.2459 110.522 21.5888 107.776 20.9479 104.744C20.307 101.711 20.7177 98.5599 22.1171 95.7741C23.5164 92.9883 25.827 90.7222 28.6935 89.324C31.5601 87.9258 34.824 87.4729 37.9837 88.0349C37.7299 85.6833 38.4109 83.3265 39.8896 81.4392C34.6897 76.4004 38.7866 66.4399 46.3734 66.3827C41.8299 62.4145 41.0928 54.5555 44.4463 49.7898C48.0193 44.7327 56.4079 42.2968 61.9456 45.8034C61.6203 42.2529 61.9369 38.5566 65.3991 36.4714C66.7637 35.6023 68.3794 35.1727 70.0137 35.2444C71.6479 35.316 73.2164 35.8851 74.4934 36.8699C74.5814 34.9922 75.2128 33.1756 76.3162 31.6252C77.6152 29.9403 79.4138 28.674 81.475 27.9934C83.5362 27.3128 85.7632 27.2498 87.8623 27.8127C91.297 11.885 114.704 10.3154 122.359 23.983C123.355 23.3029 124.516 22.882 125.73 22.761C126.944 22.64 128.17 22.8231 129.289 23.2925C132.21 24.5935 134.267 28.5179 132.594 31.3518C133.085 31.5051 133.535 31.7594 133.913 32.097C134.292 32.4346 134.59 32.8474 134.786 33.3069C140.257 30.8499 147.53 30.2531 151.69 35.2699C154.612 38.8164 153.599 44.8299 149.134 46.2789C153.411 47.8548 157.71 50.9615 157.521 55.2526C157.31 60.3494 152.533 62.2381 147.987 62.0685C142.177 90.0065 162.385 110.805 182.739 127.522C182.978 127.693 183.155 127.934 183.243 128.208C183.331 128.483 183.326 128.777 183.229 129.049C183.412 129.092 183.583 129.173 183.731 129.285C183.879 129.398 184 129.54 184.086 129.702C184.172 129.863 184.221 130.041 184.229 130.222C184.238 130.404 184.206 130.585 184.135 130.753C181.507 137.06 177.481 142.738 172.337 147.391C170.488 149.042 165.115 154.876 162.405 152.381C162.03 152.366 161.67 152.236 161.378 152.009C137.548 133.478 111.086 126.356 80.8952 130.096C80.1039 131.614 78.7981 132.827 77.1939 133.533C81.1448 138.386 74.3536 146.435 69.3806 148.201C66.1111 149.324 62.5232 149.226 59.3251 147.926C56.127 146.626 53.5511 144.219 52.1056 141.179C49.9266 142.72 47.239 143.443 44.5464 143.212C41.8539 142.981 39.3411 141.813 37.479 139.925C35.774 137.926 34.9516 135.362 35.1884 132.785C34.1368 132.488 33.1658 131.972 32.3441 131.274C31.5225 130.576 30.8703 129.712 30.4338 128.744C29.7521 127.324 29.5807 125.726 29.9468 124.201C28.5442 124.032 27.2202 123.483 26.1284 122.618C25.0367 121.753 24.2219 120.608 23.7787 119.315ZM74.4551 37.9212C74.364 38.023 74.2394 38.0919 74.1022 38.1163C73.9649 38.1407 73.823 38.1192 73.7001 38.0555C72.5392 37.384 71.1918 37.073 69.841 37.1649C68.4902 37.2567 67.2016 37.7469 66.1502 38.5689C63.3949 40.7603 64.3959 44.1247 64.2039 47.1359C64.2034 47.3397 64.1406 47.5388 64.0233 47.7084C63.9061 47.878 63.7395 48.0106 63.5445 48.0895C63.3494 48.1685 63.1345 48.1903 62.9266 48.1523C62.7187 48.1143 62.5271 48.0181 62.3756 47.8758C62.223 47.8964 62.0675 47.8805 61.9227 47.8297C56.4571 45.7184 49.9085 46.2805 46.6207 51.6899C43.3328 57.0992 46.2848 62.2041 50.4268 65.9452C50.6686 66.1611 50.8208 66.4543 50.855 66.7702C50.8892 67.0861 50.8031 67.4033 50.6127 67.6626C50.4224 67.922 50.1406 68.1059 49.8199 68.1802C49.4993 68.2544 49.1615 68.214 48.8695 68.0664C48.492 67.9052 48.1281 67.7162 47.7807 67.5012C47.7544 67.6321 47.6877 67.7523 47.5894 67.8461C47.4911 67.9398 47.3656 68.0029 47.2295 68.0269C45.8105 68.2343 44.4731 68.7977 43.3518 69.6604C42.2304 70.5232 41.3645 71.6551 40.8411 72.9422C40.5053 74.0329 40.4512 75.1862 40.6836 76.3017C40.916 77.4171 41.4278 78.461 42.1746 79.3426C42.4481 79.1708 42.7314 78.981 43.028 78.8324C45.0818 77.7295 47.5032 77.4473 49.7708 78.0467C50.4357 78.2599 51.0205 78.6574 51.4518 79.1893C53.0283 76.5207 55.4274 74.3902 58.3168 73.093C61.2062 71.7958 64.4429 71.396 67.5786 71.9489C67.4298 70.518 67.6652 69.0743 68.2621 67.7561C68.859 66.4379 69.7974 65.2896 70.9875 64.4211C72.1776 63.5526 73.5793 62.9931 75.0584 62.7962C76.5375 62.5993 78.0443 62.7717 79.4343 63.2968C79.1856 62.5792 79.0016 61.8423 78.8843 61.0942L78.8128 61.1155C75.0668 60.3161 72.5679 56.2821 72.4691 52.7547C72.4654 51.1328 72.9162 49.54 73.7738 48.1442C74.6315 46.7484 75.8643 45.6013 77.3423 44.8239C75.4823 42.9545 74.4522 40.4605 74.4705 37.8714L74.4551 37.9212ZM56.5885 97.4948C56.5381 97.5636 56.4795 97.6266 56.4139 97.6824C54.0835 99.4911 51.7113 102.096 52.1184 105.17C52.2048 105.947 52.4917 106.69 52.9531 107.333L53.4388 107.189C53.6341 107.176 53.8295 107.209 54.0089 107.284C54.1883 107.36 54.3463 107.475 54.4698 107.622C54.5933 107.768 54.6787 107.94 54.7188 108.125C54.7589 108.309 54.7525 108.5 54.7003 108.682C55.8762 109.16 57.171 109.298 58.4271 109.08C59.6229 108.905 60.0372 110.636 59.1024 111.185C58.9163 111.255 58.7254 111.311 58.531 111.355C59.6421 115.697 62.0591 120.207 67.0146 121.265C68.1523 121.486 69.3262 121.47 70.4569 121.218C71.5877 120.966 72.6492 120.483 73.5697 119.802C74.4902 119.121 75.2484 118.257 75.7932 117.27C76.3379 116.283 76.6565 115.195 76.7275 114.079C76.7447 113.869 76.8007 113.663 76.8928 113.472C76.3753 112.737 77.2799 111.85 78.1619 112.16C81.9042 113.533 86.175 113.724 89.0169 110.437C91.8588 107.15 90.9306 103.086 88.6416 99.9988C88.486 99.7356 88.4312 99.4282 88.4865 99.1301C88.5417 98.8319 88.7037 98.5618 88.9442 98.3667C89.1846 98.1716 89.4885 98.0637 89.8029 98.0619C90.1174 98.0601 90.4225 98.1644 90.6655 98.3567L90.8592 98.5703C92.3902 98.3977 93.8578 97.882 95.1446 97.0646C96.4313 96.2473 97.5014 95.151 98.2689 93.8636C99.7167 91.157 98.9542 88.7313 98.1891 86.005C98.1067 85.7182 98.1304 85.4128 98.2562 85.141C96.8537 84.2625 95.7208 83.0384 94.9752 81.5959C94.0577 82.3897 92.9858 83.0002 91.8215 83.3918C90.6572 83.7835 89.4237 83.9485 88.1926 83.8774C86.9615 83.8063 85.7574 83.5004 84.6501 82.9775C83.5427 82.4547 82.5541 81.7252 81.7418 80.8315C80.305 78.9851 79.6344 76.6892 79.8612 74.3922C80.0879 72.0952 81.1956 69.962 82.9679 68.4095C81.8528 67.3915 80.9369 66.1887 80.264 64.8585C80.1692 64.981 80.0366 65.0713 79.8851 65.1164C79.7336 65.1614 79.571 65.159 79.4211 65.1093C73.9118 63.2521 69.4666 66.9562 70.0601 72.4162C70.0704 72.5693 70.0458 72.7228 69.988 72.8657C69.9302 73.0087 69.8406 73.1377 69.7255 73.2438C69.6104 73.3499 69.4726 73.4304 69.3217 73.4797C69.1709 73.529 69.0107 73.5459 68.8523 73.5292C68.7346 73.6516 68.5854 73.7419 68.4199 73.7911C68.2544 73.8404 68.0785 73.8468 67.9096 73.8097C65.312 73.4123 62.6506 73.7494 60.248 74.78C57.8454 75.8106 55.8049 77.4905 54.3741 79.6159C54.8164 79.0924 55.874 79.1696 55.8772 80.0578C55.8562 83.6228 56.6709 87.1463 58.2606 90.3658C58.6849 91.2493 57.0887 91.9805 56.6314 91.0917C54.879 87.6851 54.0343 83.9121 54.1735 80.1126C54.1673 80.0406 54.1821 79.9684 54.2162 79.904C53.9279 80.3755 53.6718 80.8645 53.4495 81.368C51.2927 86.7422 53.5319 91.3811 57.0928 95.506C57.2165 95.656 57.3028 95.8312 57.3452 96.0183C57.3875 96.2054 57.3847 96.3994 57.3371 96.5853C57.2894 96.7713 57.1982 96.9442 57.0703 97.0908C56.9424 97.2375 56.7814 97.3539 56.5995 97.4312L56.5885 97.4948ZM117.527 79.3613C117.597 79.3871 117.664 79.4174 117.729 79.4521C123.696 83.6556 129.436 88.1499 134.927 92.9175C133.223 83.7035 132.077 74.2781 135.217 65.2355C134.057 64.6671 133.079 63.8075 132.384 62.7476C130.705 63.9728 128.632 64.5898 126.528 64.4903C126.764 65.5287 126.717 66.6082 126.392 67.6239C126.067 68.6397 125.474 69.5572 124.672 70.2873C123.87 71.0174 122.886 71.5353 121.814 71.7907C120.743 72.0462 119.621 72.0304 118.558 71.7449C119.041 72.978 119.199 74.3073 119.017 75.6134C118.835 76.9196 118.319 78.1619 117.516 79.2289L117.527 79.3613ZM115.747 70.592C115.381 69.8418 116.332 68.8053 116.986 69.5753C117.152 69.7519 117.275 69.9413 117.427 70.1222C117.466 70.0064 117.529 69.8996 117.612 69.8085C117.696 69.7174 117.798 69.644 117.913 69.5929C118.027 69.5418 118.151 69.5142 118.278 69.5118C118.404 69.5093 118.529 69.5321 118.646 69.5787C119.547 69.9171 120.539 69.9587 121.467 69.6972C122.395 69.4356 123.208 68.8855 123.777 68.1326C124.347 67.3798 124.642 66.4666 124.616 65.5354C124.59 64.6043 124.245 63.7075 123.635 62.9849C123.109 62.2222 124.293 61.2818 124.95 61.9153C125.117 62.0919 125.236 62.2675 125.369 62.4388L125.569 62.3793C127.713 62.4701 129.827 61.8727 131.581 60.6808C131.604 60.553 131.67 60.4359 131.769 60.3469C131.867 60.258 131.992 60.2018 132.126 60.1869C132.613 59.6573 132.979 59.035 133.199 58.3605C133.433 57.6742 133.521 56.9494 133.458 56.2295C133.394 55.5096 133.181 54.8095 132.83 54.171C132.479 53.5325 131.998 52.9687 131.416 52.5134C130.833 52.0581 130.161 51.7207 129.44 51.5213C129.306 51.474 129.189 51.3922 129.1 51.2847C129.011 51.1772 128.954 51.0483 128.937 50.912C128.919 50.7757 128.94 50.6373 128.998 50.512C129.057 50.3866 129.15 50.2791 129.267 50.2013C129.256 50.0642 129.282 49.9266 129.343 49.8021C135.269 37.0064 110.901 32.0197 106.809 43.998C106.777 44.1292 106.719 44.2531 106.637 44.3626C106.556 44.4721 106.453 44.565 106.334 44.636C106.215 44.7071 106.083 44.7549 105.945 44.7767C105.807 44.7986 105.665 44.794 105.529 44.7633C105.393 44.7326 105.264 44.6763 105.151 44.5977C105.037 44.5192 104.94 44.4198 104.867 44.3053C104.793 44.1908 104.743 44.0634 104.721 43.9304C104.698 43.7975 104.703 43.6615 104.735 43.5303C104.717 43.5008 104.706 43.4679 104.704 43.434C104.612 43.4084 104.524 43.3681 104.446 43.3146C101.946 41.6172 98.8368 40.4624 96.0197 42.4612C95.5024 42.8329 95.0719 43.3049 94.7556 43.8467C94.4394 44.3885 94.2445 44.9881 94.1835 45.6068C94.1225 46.2256 94.1968 46.8498 94.4016 47.4392C94.6064 48.0286 94.937 48.5702 95.3724 49.029C96.3717 49.9976 94.8644 51.5916 93.8706 50.5912C93.8706 50.5912 93.8397 50.4949 93.822 50.4398C93.7002 50.4603 93.5762 50.4669 93.4527 50.4593C91.2507 50.0591 88.9737 50.3402 86.9477 51.2625C84.9218 52.1849 83.2509 53.701 82.1743 55.5938C81.2182 57.6618 81.0403 59.9861 81.6713 62.1667C82.3023 64.3473 83.7026 66.2479 85.6314 67.5416C85.7848 67.635 85.9095 67.7664 85.9924 67.9219C86.0753 68.0775 86.1135 68.2516 86.1029 68.4261C86.1456 68.6422 86.1215 68.8655 86.0336 69.0685C85.9458 69.2715 85.798 69.4451 85.6086 69.5679C82.5115 71.8158 81.0733 76.1623 83.5197 79.3981C85.9661 82.634 90.842 82.4189 94.1175 80.4344C94.2212 80.3736 94.339 80.3385 94.4603 80.3324C94.5282 80.1309 94.6519 79.9509 94.818 79.812C94.9841 79.673 95.1863 79.5802 95.403 79.5436C95.6198 79.507 95.8428 79.528 96.0481 79.6042C96.2534 79.6805 96.4332 79.8092 96.5682 79.9764C97.7808 81.8601 99.6643 83.2538 101.866 83.8968C104.069 84.5397 106.439 84.3878 108.533 83.4695C113.801 81.4045 118.448 75.9375 115.736 70.4596L115.747 70.592ZM101.292 86.6039C101.885 88.1249 102.108 89.7567 101.943 91.3736C101.778 92.9905 101.229 94.5493 100.34 95.9299C99.4687 97.2731 98.2702 98.3912 96.8485 99.1872C95.4267 99.9832 93.8248 100.433 92.1817 100.498C92.3507 100.791 92.5001 101.093 92.6291 101.405C102.994 103.912 113.09 106.65 123.769 105.356C117.077 98.6231 109.875 92.3786 102.222 86.6738C101.899 86.5439 101.582 86.5326 101.281 86.4716L101.292 86.6039ZM128.545 25.2169C127.671 24.8389 126.702 24.7147 125.756 24.8596C124.81 25.0045 123.929 25.4123 123.22 26.0328C123.242 26.1016 123.26 26.1566 123.282 26.2254C123.511 26.9408 122.652 27.4827 122.034 27.2145L121.874 27.3979C121.2 28.3218 119.646 27.232 120.202 26.2828C120.375 25.9945 120.576 25.7228 120.802 25.4712C112.444 12.5856 95.0179 15.6308 89.9092 29.7055L89.9312 29.7742C89.8655 29.9596 89.7767 30.1217 89.7252 30.3028C89.6983 30.4463 89.6423 30.5834 89.5604 30.7061C89.4785 30.8289 89.3723 30.9349 89.2479 31.0181C89.1235 31.1013 88.9832 31.1601 88.8352 31.1911C88.6872 31.2221 88.5343 31.2248 88.3852 31.1989C88.2361 31.173 88.0938 31.119 87.9664 31.0402C87.8389 30.9613 87.7289 30.859 87.6425 30.7392C87.5561 30.6193 87.495 30.4843 87.4628 30.3417C87.4306 30.1991 87.428 30.0519 87.4548 29.9083C83.9116 29.5459 80.3947 30.0951 78.2397 33.3286C75.7961 36.9796 77.1573 40.9302 79.7969 43.9879C80.442 44.7304 79.7812 45.4998 79.0098 45.7293C77.5951 46.4702 76.4421 47.6009 75.6986 48.9767C74.9551 50.3525 74.655 51.9107 74.8366 53.4518C75.0707 54.5744 75.5512 55.6359 76.246 56.565C76.9408 57.4942 77.8338 58.2696 78.865 58.8393C78.9541 57.3505 79.361 55.8955 80.0603 54.565C81.2573 52.431 83.1184 50.7118 85.3821 49.6489C87.6457 48.5861 90.1983 48.233 92.6811 48.6392C92.1438 47.4171 92.0073 46.066 92.2898 44.767C92.5724 43.4681 93.2605 42.2833 94.2618 41.3716C97.545 38.4354 102.128 39.453 105.259 41.8972C107.944 34.1202 118.564 33.5674 125.746 36.9313C125.69 35.8265 125.98 34.7309 126.578 33.7868C127.177 32.8427 128.056 32.0938 129.102 31.6373C129.863 31.3392 130.695 31.2482 131.506 31.3742C131.613 28.7802 131.141 26.2378 128.591 25.0676L128.545 25.2169ZM145.483 59.0911C145.849 59.5279 146.118 60.0329 146.272 60.5745C150.726 60.6055 157.255 58.6174 154.335 53.3674C152.405 49.8875 147.702 48.544 144.087 47.3739C143.84 47.2987 143.631 47.1366 143.502 46.9198C143.373 46.703 143.334 46.4474 143.392 46.204C143.45 45.9606 143.601 45.7472 143.815 45.6063C144.03 45.4653 144.291 45.4072 144.547 45.4434C145.336 45.5414 146.116 45.692 146.883 45.8939C146.954 45.8727 146.985 45.7731 147.071 45.7476C152.784 44.0473 152.004 37.4674 147.395 35.101C143.399 33.0347 139.027 34.3809 135.085 35.75C134.934 35.8045 134.772 35.8204 134.613 35.7963C134.455 35.7722 134.305 35.7088 134.18 35.6123C134.011 35.6137 133.847 35.5564 133.718 35.4507C133.589 35.3451 133.504 35.1982 133.479 35.0372C133.178 33.1223 130.654 32.8636 129.297 33.855C128.721 34.3078 128.299 34.9171 128.086 35.6039C127.874 36.2906 127.881 37.023 128.107 37.7058C128.15 37.8772 128.143 38.0569 128.086 38.2245C132.211 41.0361 134.219 45.4422 130.777 50.37C132.407 50.8911 133.788 51.9578 134.671 53.3764C135.554 54.795 135.88 56.4716 135.589 58.1016C135.268 59.4225 134.572 60.6314 133.579 61.5933C134.931 62.9548 136.771 63.7705 138.724 63.8754C140.568 64.1105 143.988 63.4545 143.875 61.3479C143.802 61.2417 143.762 61.1175 143.76 60.9902C143.716 60.7333 143.636 60.4833 143.522 60.2472C143.433 60.1203 143.371 59.9778 143.339 59.8277C143.307 59.6777 143.306 59.5231 143.337 59.3727C143.367 59.2224 143.428 59.0792 143.515 58.9515C143.603 58.8237 143.716 58.7138 143.848 58.6281C143.979 58.5424 144.127 58.4825 144.283 58.4519C144.439 58.4212 144.6 58.4205 144.756 58.4496C144.912 58.4787 145.06 58.5372 145.193 58.6216C145.326 58.706 145.44 58.8148 145.529 58.9417L145.483 59.0911ZM164.289 150.449C165.649 151.371 173.031 143.553 174.249 142.18C177.281 138.685 179.744 134.765 181.553 130.557C181.31 130.565 181.067 130.524 180.842 130.437C177.461 132.556 174.388 135.097 171.702 137.995C170.967 138.681 162.854 149.294 164.335 150.3L164.289 150.449ZM81.456 127.502C81.4581 127.625 81.4506 127.749 81.4334 127.871C109.192 121.72 141.059 129.887 161.892 148.585C163.169 145.593 164.862 142.782 166.926 140.23C170.187 135.781 174.43 132.084 179.352 129.403C158.667 113.313 139.234 90.6862 145.66 63.7406C145.145 64.4694 144.475 65.0838 143.694 65.5425C142.912 66.0011 142.038 66.2934 141.13 66.3998C139.558 66.5236 137.978 66.3206 136.495 65.8047C134.167 75.9623 135.848 85.7407 137.985 95.8657C138.065 96.1216 138.056 96.3957 137.96 96.6463C137.863 96.8968 137.684 97.1099 137.449 97.2531C137.215 97.3963 136.939 97.4617 136.662 97.4392C136.386 97.4168 136.124 97.3078 135.918 97.1289C129.426 91.5251 122.81 86.365 116.13 81.1033C113.399 84.0188 109.736 85.9732 105.722 86.6572C113.888 91.9506 121.304 98.245 127.784 105.382C128.453 106.102 128.49 107.583 127.207 107.829C115.813 109.969 104.401 107.758 93.4671 104.456C93.6686 106.023 93.5111 107.613 93.0055 109.115C98.7588 110.077 104.237 112.195 109.084 115.332C109.302 115.456 109.48 115.637 109.595 115.854C109.711 116.072 109.759 116.316 109.735 116.559C109.711 116.802 109.616 117.034 109.46 117.226C109.304 117.419 109.094 117.564 108.856 117.646C99.3653 120.32 89.6595 122.225 79.8396 123.341C80.8792 124.441 81.4698 125.866 81.502 127.353L81.456 127.502ZM78.1871 121.165C87.2519 119.873 96.2427 118.138 105.125 115.968C101.124 113.713 96.8467 111.948 92.3918 110.714C92.0506 111.396 91.6179 112.031 91.1048 112.604C89.6979 114.067 87.8864 115.113 85.8834 115.618C83.8804 116.124 81.7692 116.067 79.7983 115.456C79.6478 117.816 78.5326 120.023 76.697 121.594C76.8931 121.663 77.0854 121.741 77.2733 121.829C77.3598 121.635 77.4933 121.464 77.6626 121.329C77.8318 121.195 78.032 121.102 78.2463 121.057L78.1871 121.165ZM39.3602 138.521C42.3984 142.139 47.5159 141.701 51.0755 139.285C50.9152 138.681 50.7966 138.067 50.7205 137.447C50.5506 135.99 52.8794 135.689 53.2834 137.046C53.3893 137.376 53.4908 137.693 53.5967 138.023C53.695 138.071 53.7822 138.137 53.8532 138.219C53.9242 138.3 53.9775 138.394 54.01 138.495C54.0426 138.597 54.0536 138.703 54.0425 138.809C54.0314 138.914 53.9984 139.017 53.9454 139.11C56.002 143.667 60.2194 147.009 65.8169 146.263C71.6847 145.481 77.1267 139.762 74.1456 134.274C73.8909 134.265 73.6372 134.24 73.3859 134.199C73.1059 134.126 72.8618 133.959 72.6974 133.729C72.5329 133.498 72.4586 133.219 72.4876 132.941C72.5167 132.663 72.6473 132.404 72.8562 132.21C73.065 132.016 73.3387 131.899 73.6283 131.881C74.4789 131.835 75.3107 131.622 76.0729 131.255C76.8351 130.888 77.5116 130.375 78.061 129.748C77.9987 129.507 78.025 129.252 78.1353 129.027C78.2455 128.802 78.4331 128.62 78.6663 128.513C78.7367 128.251 78.7871 127.984 78.8171 127.715C78.8137 126.546 78.3477 125.422 77.514 124.572C76.6803 123.723 75.5417 123.211 74.3301 123.142C72.4245 124.216 70.2351 124.731 68.03 124.625C61.5374 124.191 56.6693 118.088 56.4675 112.045C54.7943 112.003 53.1979 111.36 51.9926 110.241C49.2276 111.01 46.6728 112.357 44.5105 114.186C42.2518 116.169 37.6579 121.41 40.7876 124.336L41.1018 124.243C42.5038 123.735 43.3614 125.726 42.1993 126.494C38.3132 128.916 35.9585 134.259 39.4062 138.372L39.3602 138.521ZM30.9379 122.023L31.0213 121.892C31.614 121.203 32.6263 122.018 32.3018 122.762C32.2561 122.875 32.2202 122.992 32.1945 123.111C32.2428 123.302 32.238 123.502 32.1805 123.691C32.1231 123.88 32.015 124.052 31.8671 124.188C31.6537 125.515 31.9287 126.873 32.6445 128.026C33.3362 129.027 34.3483 129.784 35.5271 130.182C36.1396 128.306 37.3087 126.643 38.8904 125.398C36.491 122.797 37.5688 118.693 39.6087 115.735C42.1758 112.08 45.9466 109.365 50.3125 108.028C50.0899 107.649 49.9134 107.247 49.7867 106.828C48.5421 102.949 51.0369 98.9207 54.3737 96.7371C52.3125 94.8443 50.8452 92.4315 50.1394 89.7741C49.4335 87.1167 49.5177 84.3217 50.382 81.7081C50.3116 81.6729 50.2491 81.6247 50.1983 81.5661C50.1474 81.5075 50.1092 81.4397 50.0858 81.3667C50.0624 81.2937 50.0542 81.217 50.0619 81.141C50.0696 81.065 50.0929 80.9911 50.1305 80.9239C50.7033 79.2463 46.0161 80.0985 45.559 80.2345C44.6765 80.5023 43.8514 80.9214 43.1235 81.4716C43.0717 81.7597 42.9301 82.0257 42.7175 82.2343C42.5049 82.4429 42.2314 82.5843 41.9334 82.6396C40.1717 84.8066 40.2857 87.2595 40.7516 89.8337C40.9275 90.8213 39.4645 91.7239 38.8883 90.6594C38.8398 90.5081 38.7912 90.3568 38.7427 90.2054C33.2083 89.4409 27.3805 91.5669 24.7957 96.6314C22.02 101.979 24.4424 107.286 28.3592 111.155C28.6094 111.175 28.8423 111.286 29.0104 111.466C29.1785 111.645 29.2691 111.88 29.264 112.121C29.4155 112.347 29.4854 112.615 29.463 112.883C29.4406 113.152 29.3272 113.405 29.1401 113.605C28.953 113.805 28.7027 113.94 28.428 113.989C28.1534 114.038 27.8696 113.998 27.6206 113.876C26.9918 114.512 26.5532 115.3 26.3512 116.156C26.1493 117.012 26.1915 117.904 26.4733 118.739C27.065 120.779 28.9585 121.315 30.9982 121.869L30.9379 122.023Z" fill="black" fill-opacity="0.3"/>
<path d="M137.985 80.2068C138 80.1053 138.051 80.0122 138.13 79.9439C138.21 79.8756 138.311 79.8367 138.418 79.834C138.524 79.8313 138.628 79.8651 138.711 79.9294C138.794 79.9936 138.85 80.084 138.87 80.1846C139.426 85.835 140.492 91.428 142.057 96.9C142.097 97.024 142.084 97.1582 142.021 97.273C141.958 97.3879 141.85 97.4739 141.721 97.5122C141.593 97.5506 141.453 97.5381 141.334 97.4774C141.215 97.4168 141.125 97.3131 141.086 97.189C138.904 91.7793 137.85 86.0087 137.985 80.2068Z" fill="black" fill-opacity="0.3"/>
<path d="M140.858 74.529C140.936 73.6015 142.451 73.5426 142.41 74.4891C142.11 78.6629 142.708 82.8514 144.166 86.7924C144.272 87.1226 143.742 87.3709 143.578 87.0577C141.505 83.1975 140.565 78.8658 140.858 74.529Z" fill="black" fill-opacity="0.3"/>
<path d="M104.507 79.0157C106.275 79.0414 107.994 78.4511 109.347 77.3535C110.7 76.2559 111.596 74.7248 111.87 73.0417C111.981 72.3153 113.241 72.4378 113.214 73.1842C112.888 77.2902 108.851 81.1441 104.353 80.3424C104.206 80.2869 104.083 80.1862 104.001 80.0561C103.919 79.9259 103.885 79.7735 103.902 79.6224C103.92 79.4713 103.988 79.3299 104.098 79.2203C104.207 79.1106 104.351 79.0387 104.507 79.0157Z" fill="black" fill-opacity="0.3"/>
<path d="M100.981 78.1209C103.321 77.4228 105.312 75.9181 106.573 73.8947C106.617 73.8143 106.677 73.7431 106.749 73.685C106.822 73.627 106.906 73.5833 106.996 73.5564C107.086 73.5296 107.181 73.5201 107.275 73.5286C107.369 73.537 107.461 73.5632 107.544 73.6057C107.628 73.6481 107.701 73.706 107.762 73.776C107.822 73.846 107.867 73.9267 107.895 74.0136C107.923 74.1005 107.933 74.1918 107.924 74.2823C107.915 74.3728 107.888 74.4608 107.844 74.5412C107.193 75.7593 106.291 76.8367 105.192 77.7077C104.094 78.5787 102.823 79.2248 101.457 79.6068C101.253 79.6677 101.031 79.6478 100.842 79.5515C100.652 79.4552 100.511 79.2904 100.447 79.0934C100.384 78.8964 100.405 78.6832 100.505 78.5008C100.605 78.3185 100.776 78.1818 100.981 78.1209Z" fill="black" fill-opacity="0.3"/>
<path d="M105.15 20.2869C107.424 19.8723 109.777 20.276 111.762 21.4214C113.748 22.5669 115.228 24.3744 115.922 26.5011C115.965 26.6361 115.951 26.7821 115.882 26.9071C115.814 27.032 115.697 27.1257 115.556 27.1674C115.416 27.2091 115.265 27.1955 115.135 27.1295C115.005 27.0635 114.908 26.9506 114.865 26.8156C114.136 25.0317 112.796 23.5406 111.068 22.5887C109.341 21.6369 107.327 21.2812 105.361 21.5804C104.626 21.6786 104.399 20.4349 105.15 20.2869Z" fill="black" fill-opacity="0.3"/>
<path d="M101.718 22.2733C103.535 22.1508 105.359 22.3952 107.073 22.9909C108.786 23.5866 110.352 24.5204 111.669 25.7326C112.053 26.1006 111.587 26.8422 111.107 26.5177C108.396 24.6112 105.119 23.5989 101.762 23.6315C101.575 23.6372 101.394 23.5711 101.257 23.4478C101.121 23.3244 101.041 23.154 101.035 22.9738C101.029 22.7937 101.098 22.6187 101.226 22.4873C101.354 22.356 101.531 22.279 101.718 22.2733Z" fill="black" fill-opacity="0.3"/>
<path d="M50.3513 50.4894C50.8144 49.8843 51.9563 50.6146 51.469 51.2419C50.4417 52.659 49.8438 54.3235 49.7425 56.0491C49.6411 57.7747 50.0401 59.4935 50.8949 61.0132C51.3532 61.8565 50.0955 62.6678 49.59 61.8235C48.5372 60.0741 48.0476 58.0629 48.1831 56.0451C48.3186 54.0272 49.0733 52.0936 50.3513 50.4894Z" fill="black" fill-opacity="0.3"/>
<path d="M51.7423 54.7775C51.9481 54.0531 53.1708 54.3524 52.9188 55.0302C52.4154 56.9511 52.3394 58.9527 52.6956 60.9038C53.0518 62.8549 53.8322 64.7115 54.9858 66.3517C55.0876 66.5073 55.1211 66.6954 55.0788 66.8748C55.0366 67.0541 54.9221 67.2099 54.7606 67.308C54.599 67.406 54.4037 67.4382 54.2175 67.3975C54.0313 67.3568 53.8694 67.2466 53.7677 67.091C52.5261 65.3015 51.7021 63.274 51.3525 61.1482C51.0029 59.0224 51.1358 56.849 51.7423 54.7775Z" fill="black" fill-opacity="0.3"/>
<path d="M58.0931 82.6238C57.9823 81.8881 59.2495 81.6919 59.4174 82.4105C60.1953 85.8113 60.9161 89.229 61.4852 92.6617C61.649 93.5625 60.0016 93.8417 59.8191 92.9314C59.1313 89.5189 58.5006 86.0895 58.0931 82.6238Z" fill="black" fill-opacity="0.3"/>
<path d="M34.8546 112.086C35.7068 110.35 36.9652 108.829 38.5311 107.641C40.0969 106.454 41.9274 105.632 43.8787 105.241C44.7786 104.973 45.2343 106.344 44.32 106.616C42.5986 107.04 40.9909 107.813 39.6044 108.883C38.2179 109.953 37.0846 111.296 36.2801 112.822C36.1787 113.004 36.0064 113.14 35.801 113.2C35.5957 113.259 35.3741 113.238 35.1851 113.14C34.9961 113.043 34.855 112.877 34.7931 112.679C34.7311 112.481 34.7532 112.268 34.8546 112.086Z" fill="black" fill-opacity="0.3"/>
<path d="M31.2455 113.567C31.2869 111.47 32.0345 109.443 33.3756 107.791C34.7168 106.138 36.5789 104.951 38.6817 104.406C38.9317 104.332 39.2022 104.356 39.4337 104.474C39.6651 104.591 39.8385 104.793 39.9158 105.033C39.993 105.274 39.9678 105.535 39.8456 105.758C39.7234 105.981 39.5143 106.148 39.2643 106.222C37.6066 106.783 36.1517 107.793 35.0736 109.129C33.9955 110.465 33.3398 112.072 33.1847 113.758C33.0563 114.821 31.2401 114.623 31.2455 113.567Z" fill="black" fill-opacity="0.3"/>
<path d="M63.4939 139.509C65.2504 139.352 66.9636 138.893 68.552 138.154C69.367 137.74 69.9791 137.032 70.2553 136.185C70.5316 135.338 70.4496 134.42 70.0272 133.631C69.7034 133.109 70.4666 132.415 70.9091 132.916C71.5644 133.661 71.9273 134.603 71.9343 135.579C71.9413 136.555 71.592 137.502 70.9473 138.255C69.3483 140.344 66.2888 140.953 63.7651 141.086C62.8418 141.134 62.5532 139.698 63.4939 139.509Z" fill="black" fill-opacity="0.3"/>
<path d="M57.5267 138.225C60.1781 137.462 62.5886 136.071 64.5382 134.179C64.6732 134.037 64.8612 133.953 65.0609 133.944C65.2607 133.935 65.4558 134.004 65.6033 134.134C65.7508 134.264 65.8387 134.445 65.8476 134.637C65.8565 134.829 65.7857 135.017 65.6507 135.159C63.6503 137.4 61.034 139.051 58.1026 139.922C57.8838 139.952 57.6611 139.906 57.4738 139.793C57.2864 139.68 57.1461 139.508 57.0775 139.306C57.0089 139.103 57.0164 138.884 57.0985 138.687C57.1806 138.489 57.3322 138.326 57.5267 138.225Z" fill="black" fill-opacity="0.3"/>
</svg>
