<svg width="91" height="76" viewBox="0 0 91 76" fill="none" xmlns="http://www.w3.org/2000/svg">
<path d="M88.7355 57.5318C88.9183 56.8813 88.9189 56.1958 88.7372 55.545C88.5555 54.8942 88.198 54.3013 87.7012 53.8268C89.0277 52.7094 89.9366 51.2034 90.2881 49.5402C90.6396 47.8771 90.4143 46.1487 89.6468 44.6208C88.8793 43.093 87.6121 41.8501 86.04 41.0833C84.4678 40.3164 82.6777 40.068 80.9448 40.3763C81.084 39.0866 80.7105 37.7939 79.8995 36.7589C82.7514 33.9953 80.5045 28.5325 76.3435 28.5011C78.8353 26.3248 79.2396 22.0145 77.4004 19.4008C75.4408 16.6272 70.8401 15.2912 67.8029 17.2144C67.9813 15.2671 67.8077 13.2399 65.9088 12.0963C65.1604 11.6197 64.2743 11.3841 63.378 11.4233C62.4817 11.4626 61.6214 11.7748 60.921 12.3149C60.8728 11.285 60.5265 10.2887 59.9213 9.43842C59.2089 8.51432 58.2225 7.81985 57.092 7.44657C55.9615 7.0733 54.7401 7.03872 53.5889 7.34743C51.7052 -1.38807 38.8675 -2.24895 34.6692 5.24708C34.1232 4.87407 33.4864 4.6432 32.8205 4.57684C32.1547 4.51048 31.4823 4.61088 30.8686 4.86832C29.2665 5.58188 28.1383 7.73421 29.0558 9.28845C28.7867 9.37256 28.5398 9.51202 28.3322 9.69717C28.1246 9.88232 27.9613 10.1087 27.8536 10.3607C24.853 9.01319 20.8642 8.68591 18.5826 11.4373C16.9803 13.3824 17.5358 16.6805 19.9843 17.4752C17.6387 18.3395 15.2812 20.0434 15.3845 22.3968C15.5005 25.1922 18.1205 26.228 20.6135 26.135C23.7999 41.4576 12.7169 52.8647 1.55404 62.0327C1.42274 62.1268 1.32593 62.2586 1.27762 62.4092C1.22932 62.5598 1.23203 62.7213 1.28535 62.8703C1.1849 62.894 1.09097 62.9383 1.00983 63.0001C0.928694 63.0618 0.862283 63.1397 0.815122 63.2284C0.767961 63.317 0.74112 63.4144 0.736458 63.5139C0.731795 63.6134 0.749407 63.7127 0.788085 63.8051C2.22959 67.2641 4.43785 70.3783 7.25857 72.9301C8.27271 73.8353 11.2199 77.035 12.7058 75.667C12.9115 75.6588 13.109 75.5872 13.2692 75.4626C26.3389 65.2997 40.8516 61.3937 57.41 63.4444C57.844 64.2772 58.5601 64.9423 59.44 65.3297C57.2731 67.9913 60.9977 72.4059 63.7252 73.3746C65.5183 73.9905 67.4861 73.9367 69.2401 73.2237C70.9941 72.5107 72.4069 71.1904 73.1996 69.5233C74.3947 70.3684 75.8687 70.7647 77.3455 70.6381C78.8222 70.5115 80.2003 69.8706 81.2216 68.8355C82.1567 67.7389 82.6078 66.3328 82.4779 64.9193C83.0546 64.7565 83.5872 64.4737 84.0378 64.0907C84.4884 63.7077 84.8461 63.2339 85.0855 62.703C85.4594 61.9242 85.5534 61.0477 85.3526 60.2118C86.1219 60.1189 86.848 59.8177 87.4468 59.3434C88.0456 58.869 88.4924 58.2409 88.7355 57.5318ZM60.942 12.8915C60.992 12.9473 61.0603 12.9851 61.1356 12.9984C61.2109 13.0118 61.2887 13.0001 61.3561 12.9651C61.9928 12.5968 62.7318 12.4263 63.4727 12.4766C64.2135 12.527 64.9203 12.7959 65.4969 13.2467C67.0081 14.4485 66.459 16.2938 66.5644 17.9452C66.5646 18.057 66.599 18.1662 66.6634 18.2592C66.7277 18.3523 66.819 18.425 66.926 18.4683C67.033 18.5116 67.1509 18.5235 67.2649 18.5027C67.3789 18.4818 67.484 18.4291 67.5671 18.3511C67.6508 18.3623 67.736 18.3536 67.8154 18.3258C70.8131 17.1678 74.4046 17.4761 76.2078 20.4429C78.0111 23.4096 76.3921 26.2094 74.1204 28.2612C73.9878 28.3796 73.9043 28.5404 73.8855 28.7137C73.8668 28.8869 73.914 29.0609 74.0184 29.2031C74.1228 29.3453 74.2773 29.4462 74.4532 29.487C74.6291 29.5277 74.8143 29.5055 74.9745 29.4246C75.1815 29.3361 75.3811 29.2325 75.5716 29.1146C75.5861 29.1864 75.6226 29.2523 75.6766 29.3037C75.7305 29.3552 75.7993 29.3897 75.874 29.4029C76.6522 29.5166 77.3857 29.8256 78.0007 30.2988C78.6157 30.772 79.0906 31.3928 79.3776 32.0987C79.5618 32.6969 79.5915 33.3294 79.464 33.9412C79.3366 34.553 79.0559 35.1255 78.6463 35.609C78.4963 35.5148 78.3409 35.4107 78.1782 35.3292C77.0518 34.7243 75.7238 34.5695 74.4801 34.8983C74.1155 35.0152 73.7948 35.2332 73.5582 35.5249C72.6936 34.0613 71.3778 32.8929 69.7931 32.1814C68.2084 31.4699 66.4333 31.2507 64.7135 31.5539C64.7951 30.7691 64.666 29.9773 64.3386 29.2544C64.0113 28.5314 63.4966 27.9016 62.8439 27.4253C62.1912 26.949 61.4224 26.6421 60.6112 26.5341C59.8 26.4262 58.9736 26.5207 58.2112 26.8087C58.3476 26.4151 58.4485 26.0109 58.5129 25.6007L58.5521 25.6124C60.6066 25.1739 61.9771 22.9615 62.0313 21.0269C62.0333 20.1373 61.7861 19.2637 61.3157 18.4982C60.8453 17.7327 60.1692 17.1036 59.3586 16.6772C60.3787 15.652 60.9437 14.2841 60.9336 12.8642L60.942 12.8915ZM70.741 45.5645C70.7686 45.6023 70.8008 45.6368 70.8367 45.6674C72.1148 46.6594 73.4159 48.0881 73.1926 49.774C73.1452 50.2 72.9879 50.6079 72.7348 50.9603L72.4685 50.8811C72.3614 50.8743 72.2541 50.8924 72.1558 50.9337C72.0574 50.975 71.9707 51.0384 71.903 51.1186C71.8353 51.1988 71.7884 51.2934 71.7664 51.3946C71.7444 51.4958 71.7479 51.6005 71.7766 51.7001C71.1317 51.9624 70.4215 52.0382 69.7326 51.9185C69.0768 51.8226 68.8496 52.7716 69.3623 53.073C69.4643 53.1111 69.569 53.1423 69.6756 53.1662C69.0663 55.5473 67.7406 58.0211 65.0228 58.6011C64.3988 58.7226 63.755 58.7139 63.1349 58.5755C62.5147 58.4371 61.9325 58.1722 61.4277 57.7987C60.9228 57.4252 60.507 56.9518 60.2082 56.4104C59.9094 55.869 59.7347 55.2721 59.6958 54.6601C59.6864 54.5449 59.6556 54.4322 59.6051 54.3273C59.8889 53.9241 59.3928 53.4376 58.9091 53.6077C56.8566 54.3609 54.5143 54.4656 52.9557 52.6628C51.397 50.8599 51.9061 48.6308 53.1615 46.9379C53.2468 46.7935 53.2769 46.6249 53.2466 46.4614C53.2163 46.2979 53.1275 46.1498 52.9956 46.0428C52.8637 45.9357 52.697 45.8766 52.5246 45.8756C52.3521 45.8746 52.1847 45.9318 52.0515 46.0372L51.9452 46.1544C51.1056 46.0597 50.3007 45.7769 49.595 45.3286C48.8892 44.8804 48.3024 44.2791 47.8814 43.573C47.0874 42.0886 47.5056 40.7582 47.9252 39.263C47.9704 39.1057 47.9574 38.9382 47.8884 38.7891C48.6576 38.3073 49.2789 37.636 49.6879 36.8448C50.191 37.2802 50.7789 37.615 51.4175 37.8298C52.056 38.0446 52.7326 38.1351 53.4078 38.0961C54.0829 38.0571 54.7433 37.8893 55.3506 37.6026C55.958 37.3158 56.5002 36.9157 56.9457 36.4256C57.7337 35.4129 58.1015 34.1537 57.9771 32.8939C57.8528 31.6341 57.2452 30.4642 56.2732 29.6127C56.8848 29.0544 57.3871 28.3948 57.7562 27.6652C57.8082 27.7324 57.8809 27.7819 57.964 27.8066C58.0471 27.8313 58.1362 27.83 58.2185 27.8027C61.2401 26.7842 63.678 28.8157 63.3525 31.8102C63.3468 31.8942 63.3603 31.9783 63.3921 32.0568C63.4238 32.1352 63.4729 32.2059 63.536 32.2641C63.5991 32.3223 63.6747 32.3664 63.7575 32.3935C63.8402 32.4205 63.9281 32.4298 64.0149 32.4206C64.0795 32.4877 64.1613 32.5373 64.2521 32.5643C64.3428 32.5913 64.4393 32.5948 64.532 32.5745C65.9566 32.3565 67.4163 32.5414 68.7339 33.1066C70.0516 33.6718 71.1707 34.5932 71.9555 35.7589C71.7129 35.4718 71.1329 35.5141 71.1311 36.0012C71.1426 37.9564 70.6958 39.8889 69.8239 41.6547C69.5912 42.1392 70.4667 42.5402 70.7175 42.0528C71.6786 40.1844 72.1418 38.1151 72.0655 36.0313C72.0689 35.9918 72.0608 35.9522 72.0421 35.9169C72.2002 36.1755 72.3407 36.4437 72.4626 36.7198C73.6455 39.6673 72.4174 42.2115 70.4644 44.4738C70.3966 44.556 70.3492 44.6522 70.326 44.7548C70.3028 44.8574 70.3043 44.9638 70.3304 45.0658C70.3566 45.1677 70.4066 45.2626 70.4768 45.343C70.5469 45.4234 70.6352 45.4873 70.735 45.5297L70.741 45.5645ZM37.3191 35.6192C37.2811 35.6334 37.2442 35.65 37.2086 35.669C33.936 37.9745 30.7879 40.4394 27.7763 43.0541C28.7108 38.0007 29.3392 32.8314 27.6174 27.872C28.2533 27.5602 28.7901 27.0888 29.1708 26.5075C30.0917 27.1794 31.2289 27.5178 32.3829 27.4633C32.2535 28.0328 32.2792 28.6248 32.4575 29.1819C32.6358 29.739 32.9607 30.2422 33.4006 30.6426C33.8405 31.0431 34.3804 31.3271 34.968 31.4672C35.5555 31.6073 36.1707 31.5986 36.7538 31.4421C36.4889 32.1183 36.4025 32.8474 36.5022 33.5637C36.6019 34.2801 36.8847 34.9615 37.3252 35.5467L37.3191 35.6192ZM38.2954 30.8097C38.4961 30.3983 37.9747 29.8298 37.6161 30.2521C37.5249 30.349 37.4573 30.4529 37.374 30.5521C37.3529 30.4886 37.3183 30.43 37.2725 30.38C37.2267 30.33 37.1706 30.2898 37.1078 30.2618C37.045 30.2338 36.9768 30.2186 36.9076 30.2173C36.8384 30.2159 36.7697 30.2284 36.7057 30.254C36.2115 30.4396 35.6675 30.4624 35.1584 30.319C34.6493 30.1755 34.2038 29.8738 33.8914 29.4609C33.579 29.048 33.4172 28.5472 33.4313 28.0365C33.4454 27.5258 33.6347 27.0339 33.9695 26.6376C34.2581 26.2193 33.6083 25.7036 33.2479 26.051C33.1568 26.1478 33.0915 26.2441 33.0185 26.3381L32.9088 26.3055C31.733 26.3553 30.5733 26.0276 29.6116 25.374C29.5986 25.3038 29.5624 25.2396 29.5085 25.1908C29.4546 25.142 29.3858 25.1113 29.3123 25.103C29.0454 24.8126 28.8449 24.4713 28.7239 24.1014C28.5955 23.7249 28.5473 23.3274 28.5821 22.9326C28.6168 22.5378 28.7339 22.1538 28.9264 21.8036C29.1189 21.4534 29.3827 21.1442 29.7022 20.8945C30.0216 20.6448 30.39 20.4598 30.7854 20.3504C30.8589 20.3245 30.9235 20.2796 30.9722 20.2207C31.0209 20.1617 31.0519 20.091 31.0617 20.0163C31.0715 19.9415 31.0598 19.8656 31.0278 19.7969C30.9958 19.7281 30.9448 19.6691 30.8803 19.6264C30.8865 19.5512 30.8723 19.4758 30.839 19.4075C27.5889 12.3897 40.9536 9.65475 43.1974 16.2243C43.2149 16.2962 43.2469 16.3642 43.2917 16.4242C43.3364 16.4843 43.393 16.5352 43.4582 16.5742C43.5234 16.6132 43.596 16.6394 43.6717 16.6514C43.7474 16.6633 43.8248 16.6608 43.8995 16.644C43.9743 16.6271 44.0448 16.5963 44.1071 16.5532C44.1695 16.5101 44.2224 16.4556 44.2629 16.3928C44.3034 16.33 44.3305 16.2601 44.343 16.1872C44.3554 16.1143 44.3528 16.0397 44.3353 15.9677C44.345 15.9516 44.3507 15.9335 44.3523 15.9149C44.4028 15.9009 44.4505 15.8788 44.4934 15.8495C45.8649 14.9185 47.57 14.2852 49.115 15.3814C49.3987 15.5853 49.6348 15.8441 49.8083 16.1413C49.9817 16.4384 50.0886 16.7673 50.1221 17.1066C50.1555 17.446 50.1148 17.7883 50.0024 18.1116C49.8901 18.4349 49.7088 18.7319 49.47 18.9835C48.922 19.5148 49.7486 20.389 50.2937 19.8403C50.2937 19.8403 50.3106 19.7875 50.3203 19.7573C50.3871 19.7685 50.4551 19.7721 50.5228 19.768C51.7305 19.5485 52.9794 19.7027 54.0905 20.2085C55.2016 20.7143 56.118 21.5459 56.7085 22.584C57.2329 23.7182 57.3304 24.9929 56.9843 26.1889C56.6383 27.3848 55.8703 28.4272 54.8124 29.1367C54.7283 29.188 54.6599 29.26 54.6145 29.3453C54.569 29.4306 54.548 29.5261 54.5538 29.6219C54.5304 29.7403 54.5436 29.8628 54.5918 29.9742C54.64 30.0855 54.7211 30.1807 54.825 30.2481C56.5236 31.4809 57.3123 33.8648 55.9706 35.6395C54.6289 37.4141 51.9547 37.2962 50.1583 36.2078C50.1014 36.1744 50.0368 36.1552 49.9702 36.1519C49.933 36.0413 49.8652 35.9426 49.7741 35.8664C49.683 35.7902 49.572 35.7393 49.4532 35.7192C49.3343 35.6992 49.212 35.7106 49.0994 35.7525C48.9868 35.7943 48.8882 35.8649 48.8141 35.9566C48.1491 36.9897 47.1161 37.7541 45.9083 38.1067C44.7005 38.4593 43.4007 38.376 42.252 37.8724C39.3626 36.7398 36.8143 33.7415 38.3015 30.7371L38.2954 30.8097ZM46.2235 39.5914C45.8982 40.4256 45.7761 41.3206 45.8666 42.2074C45.957 43.0942 46.2577 43.9491 46.7455 44.7063C47.2234 45.443 47.8807 46.0562 48.6604 46.4928C49.4402 46.9293 50.3188 47.1761 51.2199 47.2115C51.1272 47.3721 51.0453 47.5382 50.9746 47.7089C45.2897 49.0839 39.7529 50.5856 33.8957 49.8759C37.566 46.1834 41.5161 42.7586 45.7134 39.6298C45.8907 39.5586 46.0644 39.5524 46.2296 39.5189L46.2235 39.5914ZM31.2766 5.9238C31.7558 5.71644 32.2873 5.64833 32.8061 5.72781C33.3249 5.8073 33.8083 6.03093 34.197 6.37125C34.1849 6.40898 34.1752 6.43916 34.1631 6.47689C34.0372 6.86926 34.5083 7.16649 34.8473 7.01938L34.9352 7.11992C35.3047 7.62665 36.1573 7.02897 35.8523 6.50838C35.7575 6.35027 35.6472 6.20122 35.5231 6.06325C40.1073 -1.00383 49.6644 0.666286 52.4663 8.38553L52.4542 8.42326C52.4903 8.52491 52.539 8.6138 52.5672 8.71312C52.5819 8.79187 52.6126 8.86704 52.6576 8.93436C52.7025 9.00167 52.7607 9.05981 52.829 9.10544C52.8972 9.15108 52.9741 9.18333 53.0553 9.20034C53.1365 9.21735 53.2204 9.2188 53.3021 9.20459C53.3839 9.19038 53.4619 9.1608 53.5318 9.11754C53.6017 9.07429 53.6621 9.01819 53.7095 8.95246C53.7568 8.88674 53.7903 8.81267 53.808 8.73448C53.8256 8.65629 53.8271 8.57551 53.8124 8.49677C55.7557 8.29803 57.6845 8.59922 58.8664 10.3727C60.2066 12.375 59.46 14.5417 58.0123 16.2187C57.6586 16.626 58.021 17.0479 58.444 17.1738C59.22 17.5801 59.8523 18.2003 60.2601 18.9548C60.6678 19.7094 60.8325 20.564 60.7329 21.4092C60.6044 22.0249 60.3409 22.6071 59.9598 23.1166C59.5788 23.6262 59.089 24.0515 58.5234 24.3639C58.4746 23.5474 58.2515 22.7494 57.8679 22.0198C57.2114 20.8494 56.1907 19.9064 54.9492 19.3235C53.7077 18.7406 52.3077 18.5469 50.946 18.7697C51.2407 18.0995 51.3156 17.3585 51.1606 16.646C51.0057 15.9336 50.6283 15.2839 50.0791 14.7838C48.2784 13.1735 45.765 13.7316 44.0476 15.0721C42.5751 10.8068 36.7506 10.5036 32.8117 12.3485C32.8425 11.7426 32.6835 11.1417 32.3553 10.6239C32.027 10.1062 31.5447 9.6954 30.9709 9.44503C30.5535 9.28154 30.0975 9.23164 29.6527 9.30073C29.5941 7.8781 29.8526 6.48369 31.2514 5.8419L31.2766 5.9238ZM21.987 24.502C21.7861 24.7416 21.6388 25.0186 21.5543 25.3156C19.1115 25.3326 15.5306 24.2423 17.1322 21.3629C18.1908 19.4544 20.7701 18.7175 22.7525 18.0758C22.8881 18.0345 23.0027 17.9456 23.0733 17.8267C23.1439 17.7078 23.1654 17.5677 23.1336 17.4342C23.1017 17.3007 23.0188 17.1836 22.9014 17.1063C22.784 17.029 22.6407 16.9971 22.5 17.017C22.0676 17.0708 21.6397 17.1533 21.2192 17.2641C21.18 17.2524 21.1632 17.1978 21.1162 17.1838C17.9824 16.2513 18.4106 12.6425 20.9381 11.3447C23.1297 10.2114 25.5276 10.9498 27.6898 11.7006C27.7723 11.7305 27.8613 11.7393 27.9483 11.7261C28.0353 11.7128 28.1172 11.678 28.1861 11.6251C28.2788 11.6259 28.3688 11.5945 28.4394 11.5365C28.51 11.4786 28.5566 11.398 28.5705 11.3097C28.7357 10.2595 30.1201 10.1176 30.864 10.6614C31.1802 10.9097 31.4116 11.2439 31.528 11.6205C31.6444 11.9972 31.6405 12.3988 31.5168 12.7733C31.4932 12.8673 31.4972 12.9659 31.5285 13.0578C29.2659 14.5998 28.1645 17.0164 30.0525 19.719C29.1586 20.0048 28.4007 20.5898 27.9165 21.3679C27.4323 22.1459 27.2538 23.0654 27.4135 23.9594C27.5894 24.6838 27.971 25.3468 28.5156 25.8744C27.7738 26.6211 26.7652 27.0685 25.6939 27.126C24.6827 27.255 22.807 26.8952 22.8687 25.7398C22.9088 25.6816 22.9307 25.6135 22.9316 25.5436C22.9559 25.4027 22.9998 25.2656 23.0623 25.1361C23.1112 25.0665 23.1453 24.9884 23.1627 24.9061C23.1801 24.8238 23.1806 24.739 23.164 24.6565C23.1474 24.5741 23.1141 24.4956 23.0661 24.4255C23.018 24.3554 22.956 24.2952 22.8838 24.2481C22.8115 24.2011 22.7303 24.1683 22.6449 24.1515C22.5594 24.1347 22.4714 24.1343 22.3858 24.1502C22.3001 24.1662 22.2187 24.1983 22.1459 24.2446C22.0732 24.2909 22.0106 24.3505 21.9618 24.4201L21.987 24.502ZM11.6726 74.6073C10.9268 75.1128 6.87829 70.8249 6.21001 70.0722C4.54722 68.155 3.19655 66.0056 2.20434 63.6975C2.33772 63.702 2.47059 63.6796 2.59447 63.6318C4.44839 64.7938 6.13401 66.1876 7.60718 67.7768C8.01004 68.1529 12.4595 73.9735 11.6474 74.5254L11.6726 74.6073ZM57.1024 62.0221C57.1013 62.0896 57.1054 62.1572 57.1148 62.2241C41.8904 58.8511 24.4133 63.3298 12.9874 73.5851C12.2871 71.944 11.3582 70.4024 10.2264 69.0025C8.43816 66.5626 6.11073 64.5348 3.41148 63.0648C14.756 54.2402 25.4139 41.8304 21.8899 27.0521C22.172 27.4518 22.5397 27.7888 22.9682 28.0403C23.3967 28.2919 23.8762 28.4522 24.3743 28.5105C25.2362 28.5784 26.1031 28.4671 26.9164 28.1841C28.1933 33.7551 27.2711 39.118 26.099 44.6711C26.055 44.8114 26.0599 44.9618 26.113 45.0992C26.1661 45.2366 26.2643 45.3535 26.3929 45.432C26.5214 45.5105 26.673 45.5464 26.8247 45.5341C26.9764 45.5218 27.1197 45.462 27.2328 45.3639C30.7934 42.2905 34.4219 39.4604 38.0854 36.5747C39.5832 38.1736 41.5921 39.2456 43.7939 39.6207C39.3151 42.5238 35.2476 45.976 31.694 49.8903C31.327 50.2853 31.3067 51.0976 32.0101 51.2325C38.2592 52.406 44.5185 51.1936 50.515 49.3823C50.4044 50.2416 50.4908 51.1138 50.7681 51.9374C47.6127 52.4652 44.6082 53.6271 41.9501 55.3476C41.8301 55.4153 41.7328 55.5146 41.6695 55.6338C41.6061 55.753 41.5795 55.8871 41.5926 56.0204C41.6057 56.1537 41.6581 56.2806 41.7436 56.3862C41.8291 56.4918 41.9441 56.5716 42.0751 56.6164C47.2801 58.083 52.6032 59.1279 57.989 59.74C57.4188 60.3431 57.0948 61.1247 57.0772 61.9402L57.1024 62.0221ZM58.8953 58.5466C53.9237 57.8378 48.9927 56.8864 44.1212 55.6961C46.3155 54.4594 48.6614 53.4914 51.1047 52.8146C51.2918 53.1884 51.5292 53.5369 51.8106 53.8512C52.5822 54.6537 53.5757 55.2273 54.6742 55.5044C55.7728 55.7815 56.9307 55.7506 58.0116 55.4154C58.0941 56.7099 58.7057 57.9202 59.7125 58.7815C59.605 58.8194 59.4995 58.8625 59.3965 58.9107C59.349 58.8043 59.2758 58.7103 59.1829 58.6367C59.0901 58.563 58.9803 58.5118 58.8628 58.4874L58.8953 58.5466ZM80.1898 68.0656C78.5235 70.0495 75.7169 69.8095 73.7646 68.4846C73.8525 68.153 73.9176 67.8161 73.9593 67.4762C74.0525 66.6774 72.7752 66.5122 72.5537 67.2564C72.4956 67.4375 72.4399 67.611 72.3818 67.7921C72.328 67.8185 72.2801 67.855 72.2412 67.8995C72.2022 67.944 72.173 67.9956 72.1552 68.0512C72.1373 68.1068 72.1312 68.1652 72.1373 68.2231C72.1434 68.281 72.1616 68.3372 72.1906 68.3882C71.0627 70.8878 68.7496 72.7206 65.6797 72.3113C62.4615 71.8827 59.4769 68.7462 61.1118 65.7363C61.2515 65.7313 61.3907 65.7174 61.5285 65.6949C61.6821 65.6547 61.8159 65.5633 61.9061 65.437C61.9963 65.3107 62.0371 65.1576 62.0211 65.0051C62.0052 64.8526 61.9336 64.7104 61.819 64.604C61.7045 64.4975 61.5544 64.4337 61.3955 64.4237C60.929 64.3982 60.4728 64.2813 60.0548 64.0802C59.6368 63.8791 59.2657 63.5979 58.9644 63.2539C58.9986 63.1215 58.9842 62.9817 58.9237 62.8583C58.8632 62.7349 58.7603 62.6353 58.6324 62.5765C58.5938 62.4327 58.5662 62.2864 58.5497 62.1387C58.5516 61.4975 58.8072 60.8812 59.2644 60.4152C59.7217 59.9492 60.3461 59.6687 61.0106 59.6307C62.0557 60.2198 63.2566 60.5024 64.4659 60.444C68.0268 60.2058 70.6967 56.8591 70.8074 53.5443C71.725 53.5216 72.6006 53.1688 73.2616 52.5553C74.7781 52.9769 76.1793 53.7156 77.3652 54.7187C78.604 55.8065 81.1235 58.6806 79.407 60.2859L79.2347 60.2346C78.4657 59.9562 77.9954 61.0478 78.6327 61.4689C80.7641 62.7975 82.0555 65.7277 80.1646 67.9837L80.1898 68.0656ZM84.809 59.0168L84.7633 58.9453C84.4382 58.5676 83.883 59.014 84.061 59.4224C84.0861 59.4844 84.1058 59.5484 84.1199 59.6135C84.0934 59.7185 84.096 59.8283 84.1275 59.932C84.1591 60.0357 84.2183 60.1296 84.2994 60.2042C84.4165 60.9323 84.2657 61.6769 83.873 62.3092C83.4937 62.8585 82.9386 63.2738 82.2921 63.4919C81.9562 62.4627 81.315 61.5507 80.4475 60.8683C81.7635 59.4414 81.1723 57.1907 80.0536 55.5683C78.6457 53.5639 76.5775 52.0749 74.183 51.3417C74.3051 51.1337 74.4019 50.9129 74.4714 50.6836C75.154 48.5557 73.7857 46.3466 71.9557 45.149C73.0862 44.1109 73.8909 42.7876 74.278 41.3301C74.6651 39.8727 74.619 38.3398 74.1449 36.9063C74.1835 36.8871 74.2178 36.8606 74.2457 36.8284C74.2736 36.7963 74.2946 36.7591 74.3074 36.7191C74.3202 36.6791 74.3247 36.637 74.3205 36.5953C74.3163 36.5536 74.3035 36.5131 74.2829 36.4762C73.9687 35.5562 76.5394 36.0235 76.7901 36.0981C77.2741 36.245 77.7266 36.4749 78.1259 36.7767C78.1543 36.9346 78.232 37.0805 78.3486 37.1949C78.4651 37.3094 78.6151 37.3869 78.7786 37.4172C79.7448 38.6057 79.6822 39.951 79.4267 41.3628C79.3302 41.9045 80.1327 42.3995 80.4486 41.8157C80.4753 41.7327 80.5019 41.6497 80.5285 41.5667C83.5639 41.1474 86.7601 42.3134 88.1777 45.091C89.7001 48.0238 88.3715 50.9348 86.2233 53.0564C86.0861 53.0674 85.9584 53.1283 85.8662 53.2268C85.774 53.3253 85.7243 53.454 85.7271 53.5865C85.644 53.7105 85.6057 53.8574 85.6179 54.0045C85.6302 54.1516 85.6925 54.2906 85.7951 54.4002C85.8977 54.5098 86.0349 54.5838 86.1856 54.6107C86.3362 54.6376 86.4919 54.6159 86.6284 54.5491C86.9733 54.8976 87.2138 55.3295 87.3246 55.7991C87.4354 56.2686 87.4122 56.7582 87.2576 57.2161C86.9331 58.3346 85.8947 58.629 84.776 58.9326L84.809 59.0168Z" fill="black" fill-opacity="0.3"/>
</svg>
