<svg width="160" height="174" viewBox="0 0 160 174" fill="none" xmlns="http://www.w3.org/2000/svg">
<path d="M149.907 68.6633C149.214 65.2006 147.624 61.9626 145.284 59.25C145.366 59.154 145.426 59.0428 145.461 58.9234C145.496 58.804 145.505 58.679 145.487 58.5561C143.966 45.8146 133.911 35.4881 121.336 32.1406C125.917 30.4066 131.006 30.382 135.606 32.0717C135.573 32.2513 135.543 32.4189 135.51 32.5985C135.521 32.7956 135.611 32.9809 135.761 33.1146C135.912 33.2483 136.111 33.3199 136.316 33.3138C137.704 33.3168 139.043 32.8127 140.061 31.9033C141.079 30.9938 141.701 29.7465 141.803 28.4127C141.812 28.312 141.793 28.2108 141.749 28.1191C141.705 28.0273 141.637 27.9481 141.552 27.8893C141.66 27.7973 141.748 27.685 141.809 27.5592C141.871 27.4334 141.905 27.2968 141.91 27.1578C141.914 27.0188 141.89 26.8804 141.837 26.751C141.784 26.6215 141.705 26.5038 141.603 26.4051C132.734 17.1663 116.19 14.373 105.869 21.6323C96.1736 12.859 82.2576 9.34778 69.2869 11.4364C69.2154 11.454 69.1462 11.4796 69.0809 11.5128C68.4533 11.6499 67.8572 11.8968 67.322 12.2412C62.6452 10.3658 57.4946 9.87369 52.5264 10.8275C34.9959 14.1854 25.5808 30.4431 20.6124 45.5606C14.3783 64.8778 11.5012 85.0544 12.0975 105.275C12.4004 116.257 11.7602 137.605 27.0246 138.764C27.3055 147.041 33.4181 152.966 43.3429 154.326C46.4804 154.716 49.6688 154.257 52.5504 152.999C52.5011 153.102 52.4787 153.214 52.485 153.327C52.4913 153.44 52.5263 153.55 52.5867 153.647C71.0187 182.074 117.361 123.142 127.714 112.1C138.067 101.058 153.197 84.9346 149.907 68.6633ZM142.559 56.5464C136.3 51.2872 127.22 48.8725 118.912 48.6975C118.75 48.6964 118.59 48.7371 118.45 48.8155C118.309 48.8939 118.193 49.0071 118.114 49.1432C118.668 46.8194 118.694 44.4074 118.188 42.0732C117.682 39.7391 116.657 37.5382 115.184 35.6221C116.338 34.727 117.575 33.9355 118.879 33.2574C131.162 36.5189 139.232 45.1424 142.559 56.5464ZM137.511 31.6641C137.552 31.5558 137.567 31.4406 137.557 31.326C137.547 31.2115 137.511 31.1004 137.452 31.0003C137.72 30.4361 138.11 29.9341 138.597 29.5284C139.084 29.1227 139.656 28.8228 140.274 28.6492C140.128 29.341 139.797 29.9837 139.312 30.5129C138.827 31.0421 138.206 31.4391 137.511 31.6641ZM139.772 27.6025C139.022 27.765 138.317 28.0813 137.705 28.5299C137.093 28.9785 136.589 29.5488 136.226 30.202C128.182 26.3823 115.748 29.3999 111.716 37.3709C111.665 37.474 111.654 37.5908 111.684 37.701C111.714 37.8113 111.783 37.9078 111.879 37.974C111.975 38.0401 112.093 38.0716 112.211 38.0629C112.329 38.0542 112.44 38.0059 112.524 37.9264C113.07 37.3889 113.649 36.8816 114.2 36.4561C116.24 40.455 116.708 45.0304 115.517 49.3359C111.09 41.6704 102.335 37.2499 93.8372 34.0943C93.8672 33.9151 93.8353 33.7314 93.7462 33.5715C93.6571 33.4116 93.5158 33.2844 93.3442 33.2095C88.8662 30.8372 83.8816 29.4885 78.776 29.2678C85.6849 27.4064 92.0015 26.9753 98.9434 29.3143C99.0562 29.3641 99.1804 29.385 99.304 29.3749C99.1416 29.7054 98.9814 30.0239 98.8439 30.3586C98.7064 30.6933 99.2941 31.4089 99.6652 30.9161C110.141 16.9341 126.7 17.3117 139.772 27.6025ZM68.7797 12.6095C68.848 12.6803 68.9335 12.7335 69.0285 12.7646C69.1235 12.7956 69.225 12.8035 69.3239 12.7874L69.7493 12.7725C69.7984 12.8886 69.8828 12.9877 69.9916 13.0567C70.1003 13.1256 70.2282 13.1612 70.3583 13.1587C70.4995 13.1716 70.6417 13.1474 70.7697 13.0885C70.8977 13.0296 71.0067 12.9383 71.085 12.8243C71.085 12.8243 71.0958 12.7644 71.1024 12.7285C83.544 12.2166 94.1799 15.7317 104.329 22.78C102.634 24.2195 101.2 25.9216 100.086 27.8161C100.045 27.7212 99.9837 27.6356 99.9059 27.5651C99.8282 27.4947 99.7358 27.4408 99.6349 27.4071C93.3699 24.9799 86.3791 24.9478 80.0903 27.3173C80.2236 27.1057 80.2693 26.8535 80.2183 26.6109C79.4696 23.5817 78.0198 20.7547 75.9771 18.3411C73.9345 15.9276 71.3519 13.9899 68.4223 12.6729L68.7797 12.6095ZM14.7287 97.6114C14.9521 84.5959 16.6338 71.6417 19.7446 58.9739C22.9116 46.0211 26.9613 31.3784 37.3101 21.9153C49.7611 10.5354 71.5458 8.86735 78.2595 27.17C78.3136 27.3413 78.4189 27.4935 78.5623 27.6076C78.7056 27.7216 78.8807 27.7925 79.0656 27.8113C78.5741 28.0495 78.0869 28.2637 77.6533 28.5362C77.5883 28.5704 77.5323 28.6182 77.4892 28.6761C77.4461 28.734 77.4171 28.8005 77.4044 28.8707C77.3917 28.9409 77.3955 29.0129 77.4157 29.0815C77.4359 29.15 77.4718 29.2133 77.5209 29.2666C75.327 29.3381 73.1693 29.8253 71.171 30.7003C69.1727 31.5753 67.3731 32.821 65.8748 34.3661C60.1798 40.1329 57.1368 49.2202 53.8253 56.3252C49.9055 64.714 46.3126 73.2071 43.0466 81.8045C36.5587 98.875 30.1744 116.999 27.2475 134.989C27.1412 135.576 27.0305 136.187 27.0491 136.72C12.8648 132.781 14.5439 108.882 14.7287 97.6114ZM54.2544 149.251C49.7967 151.512 46.6362 152.128 41.8445 150.718C35.0202 148.72 34.9739 148.552 32.2322 141.626C29.1709 133.918 31.4736 127.927 33.4827 120.233C36.4633 108.803 40.0115 97.4937 44.0871 86.3839C48.3617 74.7647 53.2177 63.3543 58.655 52.1527C61.0803 47.1811 63.6118 40.0683 67.7451 36.0624C73.9609 30.0377 82.4231 31.127 89.827 33.815C89.827 33.815 89.8118 33.8989 89.934 33.9317C101.452 39.4335 115.72 45.6688 115.859 60.1025C115.969 72.0763 108.858 84.6004 102.817 94.6767C95.9085 105.732 87.8966 116.113 78.8954 125.67C71.9349 133.26 63.7613 144.433 54.2544 149.251ZM120.06 116.378C112.01 124.747 104.172 133.361 95.7125 141.377C86.1634 150.457 66.1234 166.532 53.7917 152.652C53.7332 152.598 53.6689 152.55 53.5999 152.509C60.5199 149.243 66.2399 142.42 71.0534 137.418C83.9705 124.031 96.6535 110.099 106.019 94.1168C112.419 83.188 121.533 66.6083 117.402 53.5639C117.283 53.1614 117.122 52.7766 116.976 52.3819C117.036 52.3187 117.087 52.2486 117.129 52.1732C117.449 51.447 117.717 50.7006 117.931 49.9392C117.943 50.1433 118.03 50.3366 118.177 50.4837C118.325 50.6309 118.522 50.7219 118.734 50.7403C135.377 52.4892 152.061 61.5118 146.473 80.3993C142.308 94.4797 130.113 105.927 120.06 116.378Z" fill="black" fill-opacity="0.3"/>
<path d="M34.7921 28.3887C35.193 27.8022 34.2026 27.1175 33.7439 27.6696C29.5744 32.725 26.9481 38.7983 26.1588 45.2097C26.1427 45.2986 26.1639 45.39 26.2178 45.4639C26.2717 45.5377 26.3538 45.5879 26.4461 45.6034C26.5385 45.6189 26.6334 45.5985 26.71 45.5466C26.7867 45.4947 26.8389 45.4156 26.855 45.3267C28.5055 39.2953 31.188 33.5709 34.7921 28.3887Z" fill="black" fill-opacity="0.3"/>
<path d="M42.0228 24.3978C37.4953 27.9491 34.1488 32.7015 32.3979 38.0664C32.3685 38.1905 32.3871 38.3207 32.4503 38.4325C32.5135 38.5444 32.6169 38.6301 32.7411 38.6737C32.8653 38.7173 33.0017 38.7158 33.1248 38.6693C33.2479 38.6229 33.3492 38.5347 33.4096 38.4215C35.5963 33.5004 38.8596 29.0916 42.9767 25.4958C43.5868 24.9568 42.6847 23.8552 42.0228 24.3978Z" fill="black" fill-opacity="0.3"/>
<path d="M38.2665 134.411C37.421 128.57 37.9517 122.621 39.8195 117.004C39.9749 116.5 39.207 116.284 38.9651 116.7C35.8705 122.198 35.0367 128.616 36.6296 134.678C36.8696 135.545 38.3963 135.321 38.2665 134.411Z" fill="black" fill-opacity="0.3"/>
<path d="M41.7477 134.428C40.9485 133.12 40.5078 131.637 40.4669 130.12C40.4259 128.602 40.7861 127.099 41.5136 125.753C41.7815 125.193 40.9549 124.524 40.521 125.08C39.4027 126.561 38.777 128.334 38.7266 130.165C38.6761 131.996 39.2033 133.798 40.2384 135.335C40.376 135.498 40.5709 135.608 40.7864 135.643C41.002 135.678 41.2234 135.635 41.4089 135.524C41.5944 135.413 41.7313 135.24 41.7937 135.038C41.8561 134.836 41.8397 134.619 41.7477 134.428Z" fill="black" fill-opacity="0.3"/>
<path d="M105.625 69.2148C105.619 68.6094 104.574 68.5077 104.514 69.1267C103.431 77.9243 100.631 86.4454 96.2606 94.2409C96.1933 94.4125 96.1934 94.6019 96.2608 94.7735C96.3282 94.9451 96.4582 95.0871 96.6266 95.1729C96.7949 95.2587 96.99 95.2825 97.1752 95.2396C97.3604 95.1968 97.523 95.0904 97.6326 94.9404C102.847 87.3005 105.625 78.3576 105.625 69.2148Z" fill="black" fill-opacity="0.3"/>
<path d="M98.7468 79.7425C98.7541 79.3489 98.1071 79.3141 98.0507 79.6254C96.8223 85.3861 94.6517 90.9222 91.6199 96.027C91.1128 96.9164 92.4525 97.5118 93.027 96.7447C96.5868 91.7227 98.5723 85.8208 98.7468 79.7425Z" fill="black" fill-opacity="0.3"/>
<path d="M90.5865 143.156C87.769 145.275 84.6894 147.049 81.4182 148.438C80.5337 148.795 80.9296 150.145 81.8698 149.834C85.4625 148.651 88.7493 146.737 91.5075 144.224C92.0657 143.689 91.2355 142.686 90.5865 143.156Z" fill="black" fill-opacity="0.3"/>
<path d="M92.9001 136.044C90.3588 139.47 87.0345 142.288 83.1835 144.281C82.4919 144.633 83.1275 145.579 83.8148 145.25C87.9248 143.344 91.4543 140.448 94.0618 136.843C94.5233 136.205 93.374 135.408 92.9001 136.044Z" fill="black" fill-opacity="0.3"/>
<path d="M143.839 77.4768C144.95 73.1141 144.255 68.5063 141.901 64.6283C141.623 64.1867 140.832 64.5225 141.037 65.0136C142.633 68.863 143.04 73.0743 142.209 77.1411C142.186 77.2442 142.184 77.3506 142.204 77.4542C142.224 77.5579 142.265 77.6568 142.324 77.7453C142.384 77.8338 142.461 77.9101 142.551 77.9699C142.641 78.0297 142.743 78.0719 142.85 78.0939C142.957 78.116 143.067 78.1175 143.175 78.0984C143.282 78.0793 143.385 78.04 143.477 77.9827C143.569 77.9254 143.648 77.8512 143.71 77.7644C143.772 77.6776 143.816 77.5799 143.839 77.4768Z" fill="black" fill-opacity="0.3"/>
<path d="M140.305 70.4668C139.856 70.0459 138.993 70.641 139.437 71.1598C139.947 71.7751 140.237 72.533 140.263 73.3203C140.289 74.1075 140.05 74.8816 139.581 75.5268C138.997 76.4157 140.481 77.1339 141.07 76.2831C141.657 75.3767 141.901 74.3034 141.762 73.2439C141.622 72.1844 141.108 71.2037 140.305 70.4668Z" fill="black" fill-opacity="0.3"/>
</svg>
