<svg width="105" height="114" viewBox="0 0 105 114" fill="none" xmlns="http://www.w3.org/2000/svg">
<path d="M7.23226 44.9371C7.68133 42.6924 8.71202 40.5935 10.2286 38.8351C10.1757 38.7729 10.1367 38.7008 10.1141 38.6234C10.0915 38.546 10.0858 38.4649 10.0973 38.3853C11.0835 30.1259 17.6013 23.4319 25.7528 21.262C22.7828 20.1379 19.4841 20.122 16.5025 21.2173C16.5236 21.3337 16.5433 21.4424 16.5644 21.5588C16.5577 21.6866 16.4993 21.8067 16.4016 21.8934C16.304 21.9801 16.175 22.0264 16.0422 22.0225C15.1421 22.0244 14.2746 21.6977 13.6146 21.1082C12.9546 20.5186 12.5511 19.7101 12.4854 18.8455C12.4797 18.7802 12.4917 18.7146 12.5203 18.6551C12.5488 18.5956 12.5929 18.5443 12.6482 18.5062C12.578 18.4465 12.5212 18.3737 12.4813 18.2922C12.4414 18.2106 12.4193 18.1221 12.4161 18.032C12.413 17.9419 12.4291 17.8522 12.4633 17.7683C12.4975 17.6844 12.5491 17.6081 12.615 17.5441C18.3638 11.5552 29.0881 9.74453 35.7784 14.4502C42.0636 8.76312 51.0843 6.48703 59.4923 7.84091C59.5387 7.85235 59.5835 7.86897 59.6258 7.89044C60.0326 7.97936 60.4191 8.1394 60.766 8.36261C63.7976 7.14695 67.1364 6.82794 70.3569 7.44625C81.7207 9.62289 87.8239 20.1616 91.0445 29.9612C95.0856 42.4832 96.9506 55.5622 96.5641 68.6698C96.3677 75.7888 96.7828 89.6269 86.8879 90.3784C86.7059 95.7435 82.7435 99.5846 76.3099 100.466C74.2761 100.719 72.2093 100.421 70.3414 99.6059C70.3733 99.6724 70.3879 99.7454 70.3838 99.8186C70.3797 99.8918 70.357 99.9629 70.3178 100.026C58.3697 118.453 28.3293 80.2515 21.6182 73.094C14.9071 65.9365 5.09958 55.4846 7.23226 44.9371ZM11.9953 37.0825C16.0526 33.6733 21.9387 32.1081 27.3239 31.9947C27.4291 31.9939 27.5325 32.0204 27.6235 32.0712C27.7145 32.122 27.7897 32.1953 27.8413 32.2836C27.4818 30.7772 27.4654 29.2137 27.7933 27.7006C28.1211 26.1876 28.7855 24.7609 29.7407 23.5188C28.9925 22.9386 28.1907 22.4255 27.3454 21.986C19.3832 24.1001 14.1516 29.6901 11.9953 37.0825ZM15.2672 20.9531C15.2412 20.8829 15.2311 20.8082 15.2377 20.734C15.2443 20.6597 15.2674 20.5877 15.3055 20.5228C15.1322 20.1571 14.8791 19.8317 14.5635 19.5687C14.2479 19.3057 13.8771 19.1113 13.4765 18.9988C13.5707 19.4472 13.7858 19.8639 14.1001 20.2069C14.4144 20.5499 14.8169 20.8073 15.2672 20.9531ZM13.8019 18.3203C14.2882 18.4256 14.7452 18.6306 15.1418 18.9214C15.5385 19.2122 15.8653 19.5819 16.1002 20.0053C21.3147 17.5293 29.3752 19.4854 31.9888 24.6524C32.0215 24.7192 32.0288 24.795 32.0094 24.8664C31.9901 24.9379 31.9452 25.0005 31.8828 25.0434C31.8204 25.0862 31.7443 25.1066 31.6679 25.101C31.5914 25.0954 31.5194 25.064 31.4645 25.0125C31.1108 24.6641 30.7356 24.3353 30.3784 24.0594C29.0557 26.6517 28.7524 29.6175 29.5247 32.4085C32.3942 27.4395 38.0697 24.574 43.5781 22.5284C43.5586 22.4123 43.5793 22.2932 43.6371 22.1896C43.6948 22.0859 43.7864 22.0034 43.8977 21.9549C46.8004 20.4171 50.0316 19.5428 53.3411 19.3998C48.8626 18.1932 44.768 17.9137 40.2681 19.4299C40.195 19.4622 40.1145 19.4757 40.0344 19.4692C40.1396 19.6834 40.2435 19.8899 40.3326 20.1068C40.4217 20.3238 40.0408 20.7877 39.8002 20.4682C33.0094 11.4047 22.2754 11.6495 13.8019 18.3203ZM59.8211 8.6014C59.7768 8.64724 59.7214 8.68178 59.6598 8.7019C59.5982 8.72202 59.5324 8.7271 59.4683 8.71668L59.1925 8.70705C59.1607 8.78233 59.106 8.84655 59.0355 8.89124C58.965 8.93592 58.8821 8.95898 58.7978 8.95736C58.7062 8.96576 58.614 8.95004 58.5311 8.91186C58.4481 8.87368 58.3775 8.8145 58.3267 8.74063C58.3267 8.74063 58.3197 8.70181 58.3155 8.67853C50.2504 8.34669 43.356 10.6253 36.7769 15.1942C37.876 16.1273 38.8056 17.2307 39.5274 18.4587C39.554 18.3972 39.5938 18.3417 39.6442 18.2961C39.6946 18.2504 39.7544 18.2155 39.8198 18.1936C43.881 16.6202 48.4127 16.5994 52.4892 18.1354C52.4028 17.9982 52.3732 17.8347 52.4063 17.6775C52.8916 15.7139 53.8314 13.8813 55.1555 12.3168C56.4796 10.7522 58.1537 9.49617 60.0527 8.64244L59.8211 8.6014ZM94.8585 63.7021C94.7137 55.265 93.6235 46.8677 91.607 38.6561C89.5541 30.2597 86.929 20.7679 80.2206 14.6337C72.1494 7.2569 58.028 6.17561 53.676 18.0399C53.6409 18.151 53.5727 18.2496 53.4797 18.3236C53.3868 18.3975 53.2733 18.4434 53.1534 18.4556C53.472 18.61 53.7878 18.7489 54.069 18.9255C54.111 18.9477 54.1474 18.9787 54.1753 19.0162C54.2033 19.0537 54.222 19.0969 54.2303 19.1424C54.2385 19.1878 54.236 19.2345 54.223 19.279C54.2099 19.3234 54.1866 19.3644 54.1548 19.399C55.5769 19.4454 56.9756 19.7612 58.2709 20.3284C59.5663 20.8956 60.7329 21.703 61.7041 22.7047C65.3958 26.4428 67.3683 32.3335 69.5149 36.9392C72.0559 42.377 74.3849 47.8825 76.502 53.4556C80.7077 64.5212 84.8462 76.2699 86.7434 87.9314C86.8124 88.3117 86.8841 88.7076 86.872 89.0535C96.0667 86.5002 94.9783 71.0078 94.8585 63.7021ZM69.2368 97.1763C72.1264 98.642 74.1751 99.0414 77.2812 98.1275C81.7049 96.832 81.735 96.723 83.5122 92.2335C85.4966 87.2373 84.004 83.3534 82.7016 78.3658C80.7695 70.9569 78.4695 63.6257 75.8275 56.4241C73.0566 48.8922 69.9088 41.4956 66.3842 34.2344C64.812 31.0117 63.1711 26.4009 60.4917 23.8042C56.4625 19.8988 50.977 20.6049 46.1776 22.3474C46.1776 22.3474 46.1875 22.4017 46.1083 22.4231C38.6417 25.9894 29.3929 30.0314 29.303 39.3877C29.2314 47.1495 33.8414 55.268 37.757 61.7997C42.2354 68.9663 47.4289 75.6951 53.2638 81.8905C57.7758 86.8104 63.0741 94.0534 69.2368 97.1763ZM26.5798 75.8669C31.7979 81.292 36.8786 86.8761 42.3625 92.0725C48.5524 97.958 61.543 108.379 69.5367 99.3812C69.5746 99.3461 69.6163 99.315 69.6611 99.2884C65.1753 97.1712 61.4674 92.748 58.3472 89.5055C49.9739 80.828 41.7525 71.797 35.6817 61.4368C31.5331 54.3524 25.6247 43.605 28.3025 35.1492C28.3797 34.8883 28.484 34.6388 28.5788 34.383C28.54 34.342 28.5066 34.2966 28.4796 34.2477C28.2721 33.777 28.0985 33.2931 27.9597 32.7995C27.9523 32.9319 27.8956 33.0572 27.8 33.1525C27.7044 33.2479 27.5764 33.307 27.4393 33.3189C16.6505 34.4526 5.83584 40.3012 9.45779 52.5447C12.158 61.672 20.0627 69.0927 26.5798 75.8669Z" fill="black" fill-opacity="0.3"/>
<path d="M81.8528 18.8299C81.5929 18.4497 82.2349 18.0059 82.5323 18.3638C85.235 21.6408 86.9375 25.5777 87.4491 29.7337C87.4595 29.7914 87.4458 29.8506 87.4109 29.8985C87.3759 29.9464 87.3227 29.9789 87.2628 29.989C87.203 29.999 87.1415 29.9858 87.0918 29.9521C87.0421 29.9185 87.0083 29.8672 86.9978 29.8096C85.9279 25.8999 84.1891 22.1892 81.8528 18.8299Z" fill="black" fill-opacity="0.3"/>
<path d="M77.1656 16.243C80.1005 18.545 82.2697 21.6257 83.4047 25.1034C83.4238 25.1838 83.4117 25.2682 83.3707 25.3407C83.3298 25.4132 83.2627 25.4688 83.1822 25.4971C83.1017 25.5253 83.0133 25.5243 82.9335 25.4942C82.8537 25.4641 82.7881 25.407 82.7489 25.3336C81.3314 22.1436 79.216 19.2857 76.5472 16.9548C76.1518 16.6054 76.7365 15.8913 77.1656 16.243Z" fill="black" fill-opacity="0.3"/>
<path d="M79.6005 87.557C80.1486 83.7708 79.8046 79.9143 78.5939 76.2736C78.4931 75.9466 78.9909 75.807 79.1477 76.0765C81.1537 79.6403 81.6942 83.8006 80.6616 87.7305C80.5061 88.2925 79.5164 88.147 79.6005 87.557Z" fill="black" fill-opacity="0.3"/>
<path d="M77.3439 87.5678C77.862 86.7196 78.1476 85.7585 78.1742 84.7748C78.2007 83.791 77.9672 82.8169 77.4957 81.944C77.322 81.5813 77.8579 81.1473 78.1391 81.5079C78.864 82.4681 79.2696 83.6174 79.3023 84.8042C79.335 85.9909 78.9933 87.1593 78.3223 88.1552C78.2331 88.2613 78.1068 88.3323 77.967 88.3549C77.8273 88.3776 77.6838 88.3502 77.5635 88.278C77.4433 88.2058 77.3546 88.0938 77.3141 87.963C77.2737 87.8322 77.2843 87.6916 77.3439 87.5678Z" fill="black" fill-opacity="0.3"/>
<path d="M35.9369 45.2951C35.9405 44.9026 36.6178 44.8367 36.6573 45.2379C37.3592 50.9408 39.1743 56.4644 42.0071 61.5177C42.0507 61.6289 42.0507 61.7517 42.007 61.8629C41.9633 61.9741 41.879 62.0662 41.7699 62.1218C41.6607 62.1774 41.5343 62.1928 41.4142 62.1651C41.2942 62.1373 41.1888 62.0683 41.1177 61.9711C37.7376 57.0187 35.9366 51.2216 35.9369 45.2951Z" fill="black" fill-opacity="0.3"/>
<path d="M40.3954 52.1189C40.3907 51.8637 40.8102 51.8412 40.8467 52.043C41.643 55.7772 43.0501 59.3659 45.0154 62.675C45.344 63.2515 44.4756 63.6375 44.1032 63.1402C41.7957 59.8848 40.5086 56.0591 40.3954 52.1189Z" fill="black" fill-opacity="0.3"/>
<path d="M45.6852 93.226C47.5116 94.5996 49.5079 95.7496 51.6283 96.6497C52.2017 96.8812 51.9451 97.7561 51.3356 97.5546C49.0067 96.7875 46.8761 95.5474 45.0882 93.9182C44.7263 93.5711 45.2645 92.9208 45.6852 93.226Z" fill="black" fill-opacity="0.3"/>
<path d="M44.1855 88.6151C45.8328 90.836 47.9877 92.6627 50.4841 93.9545C50.9324 94.1831 50.5203 94.7962 50.0748 94.5832C47.4106 93.3475 45.1227 91.4704 43.4324 89.1336C43.1333 88.72 43.8783 88.2029 44.1855 88.6151Z" fill="black" fill-opacity="0.3"/>
<path d="M11.1654 50.6504C10.4452 47.8224 10.8956 44.8355 12.4214 42.3217C12.602 42.0354 13.1147 42.2531 12.9814 42.5714C11.9473 45.0667 11.6836 47.7966 12.2221 50.4328C12.2369 50.4996 12.2379 50.5686 12.2251 50.6358C12.2122 50.703 12.1858 50.7671 12.1472 50.8245C12.1086 50.8818 12.0587 50.9313 12.0003 50.9701C11.9419 51.0089 11.8761 51.0362 11.8067 51.0505C11.7373 51.0648 11.6657 51.0657 11.5959 51.0534C11.5261 51.041 11.4596 51.0155 11.4 50.9784C11.3405 50.9412 11.2891 50.8931 11.2488 50.8369C11.2086 50.7806 11.1802 50.7172 11.1654 50.6504Z" fill="black" fill-opacity="0.3"/>
<path d="M13.456 46.1063C13.747 45.8334 14.3068 46.2192 14.019 46.5555C13.6881 46.9544 13.5002 47.4457 13.4834 47.956C13.4666 48.4663 13.6218 48.9681 13.9258 49.3863C14.3042 49.9625 13.3423 50.4281 12.9601 49.8766C12.5799 49.2891 12.4216 48.5933 12.512 47.9065C12.6023 47.2197 12.9357 46.5839 13.456 46.1063Z" fill="black" fill-opacity="0.3"/>
</svg>
