<svg width="130" height="206" viewBox="0 0 130 206" fill="none" xmlns="http://www.w3.org/2000/svg">
<path d="M121.884 17.7389C107.773 8.93804 91.5968 25.2387 90.2631 38.6306C87.9486 35.8959 84.2401 35.0754 80.6779 35.8213C79.968 35.0863 78.9867 34.6493 77.9455 34.6043C76.9042 34.5594 75.8863 34.9101 75.1109 35.5809C77.2276 22.015 70.3183 -1.96773 52.3783 0.128894C36.8389 1.95205 37.3982 21.3686 44.3763 31.5286C37.1228 29.6806 29.3704 34.2633 27.3225 41.5559C24.8101 50.4811 30.1361 58.8427 37.9575 63.1852C31.5558 62.9117 28.639 70.1794 30.9191 75.6903C33.8704 82.8338 42.5264 88.0712 50.4768 87.8806C50.3781 87.9921 50.3206 88.132 50.3133 88.2784C50.1326 93.2506 49.6765 98.1648 49.2721 103.112C39.2825 100.063 28.5701 99.3665 18.9763 102.582C3.07555 107.91 -3.45513 124.857 1.76769 139.716C5.00291 148.973 11.6627 155.636 19.3377 161.685C23.5711 165 24.9305 169.458 23.072 174.414C22.4239 175.884 22.0286 177.446 21.9018 179.038C21.8356 180.627 22.1318 182.21 22.7695 183.676C23.4073 185.142 24.3711 186.456 25.5931 187.524C25.5202 187.566 25.4601 187.625 25.4193 187.697C25.3784 187.768 25.3582 187.849 25.3607 187.93C25.4468 191.56 23.7087 194.792 27.0816 197.402C28.3617 198.233 29.7149 198.954 31.1256 199.557C33.7765 201.007 36.0762 202.985 37.8714 205.358C38.0693 205.607 38.4135 205.358 38.3533 205.076C38.4939 205.02 38.6097 204.917 38.6804 204.787C38.7511 204.657 38.7723 204.507 38.7405 204.364C38.4403 202.642 37.4713 201.096 36.0301 200.038C35.1697 199.325 33.8876 198.919 33.096 198.165C28.0797 193.367 30.5147 192.745 31.1601 188.701C31.5472 186.389 30.7126 184.972 30.3599 182.743C29.8092 179.287 29.792 175.566 32.4249 172.757C33.4488 171.654 35.0062 170.826 36.1247 169.848C36.4947 169.525 36.0215 168.969 35.5999 169.193C32.9067 170.668 29.3531 172.508 28.0281 175.433C26.703 178.359 28.1657 180.348 28.8885 183.14C29.9382 187.284 27.3397 191.535 28.7078 195.455C29.0315 196.343 29.5749 197.143 30.291 197.784C28.3636 196.748 26.6256 195.728 26.1437 193.333C25.7738 191.494 26.8321 189.936 26.4363 188.071C26.5296 188.059 26.6176 188.022 26.6908 187.965C26.7639 187.908 26.8195 187.832 26.8514 187.747C26.8833 187.662 26.8903 187.57 26.8718 187.481C26.8532 187.392 26.8097 187.309 26.746 187.242C23.3559 183.323 23.0032 179.652 24.5261 175.011C25.1198 173.196 26.247 171.63 26.247 169.641C26.1908 167.785 25.5183 165.996 24.3282 164.536C22.1169 161.536 18.4601 159.506 15.7239 157.028C12.1757 153.912 9.1229 150.31 6.66355 146.338C1.11376 137.18 -0.357574 125.62 4.86525 115.957C10.7076 105.184 23.2269 101.753 35.0836 102.474C54.8305 103.676 82.6741 116.562 82.7516 138.523C82.829 161.627 58.2809 173.328 37.1487 168.249C36.9601 168.215 36.7654 168.251 36.603 168.349C36.4406 168.447 36.3223 168.6 36.2715 168.778C36.2207 168.956 36.2411 169.146 36.3286 169.311C36.4161 169.475 36.5644 169.602 36.7442 169.666C52.3783 173.61 70.7227 169.334 79.6024 155.478C88.8692 141.034 84.2917 124.576 71.0755 114.308C68.6529 112.444 66.0968 110.746 63.4263 109.228C67.6961 106.402 71.7243 103.251 75.4723 99.8057C75.5388 99.9186 75.6459 100.004 75.7735 100.046C83.7411 102.731 108.203 107.927 107.868 93.6815C107.931 93.6192 107.973 93.5399 107.988 93.4541C108.003 93.3683 107.991 93.28 107.954 93.2009C107.954 93.1346 107.876 93.0683 107.842 92.9937C107.807 92.9191 107.842 92.8943 107.842 92.8363C107.834 92.6823 107.778 92.5341 107.682 92.4113C107.585 92.2885 107.452 92.1969 107.3 92.1484C106.71 91.4072 105.921 90.8343 105.02 90.491C108.461 88.8336 112.144 87.7066 115.061 85.0879C118.39 81.9467 121.024 78.189 122.805 74.0412C125.541 67.8093 122.598 63.3509 116.36 63.6907C122.383 56.6798 127.546 48.5751 129.06 39.4924C130.247 32.0341 129.094 22.2305 121.884 17.7389ZM50.0896 103.361C51.3329 98.4268 51.8741 93.3529 51.6986 88.2784C51.699 88.1655 51.6671 88.0548 51.6064 87.9583C51.5456 87.8618 51.4585 87.7833 51.3544 87.7314C51.4212 87.6794 51.4715 87.6102 51.4993 87.5319C51.5271 87.4536 51.5313 87.3693 51.5115 87.2887C51.4917 87.2082 51.4487 87.1346 51.3874 87.0766C51.3261 87.0186 51.2491 86.9784 51.1651 86.9607C46.0713 85.958 41.3132 84.6404 37.3208 81.2344C35.0938 79.4536 33.376 77.1545 32.3302 74.555C30.747 69.9557 33.1907 63.6907 39.3944 64.9172C39.6032 64.9617 39.8217 64.9248 40.0023 64.8145C40.1829 64.7042 40.3108 64.5296 40.3581 64.3288C40.5039 64.3554 40.6549 64.3314 40.7841 64.2611C40.9134 64.1907 41.0125 64.0786 41.0641 63.9445C41.1157 63.8104 41.1163 63.6631 41.0658 63.5287C41.0153 63.3942 40.917 63.2813 40.7883 63.21C34.5674 59.6632 28.7939 54.2683 28.5788 46.8265C28.3034 37.3544 37.1831 30.3518 46.4499 34.0727L46.5618 34.197C46.6224 34.2556 46.6993 34.2961 46.7832 34.3138C46.8671 34.3314 46.9546 34.3254 47.035 34.2965H47.1125C47.2957 34.3794 47.5045 34.3931 47.6977 34.3349C47.8909 34.2768 48.0544 34.151 48.156 33.9824C48.2576 33.8138 48.2898 33.6146 48.2464 33.4242C48.2029 33.2338 48.0869 33.066 47.9213 32.954C47.3818 32.642 46.8212 32.3652 46.2434 32.1253C39.9451 22.446 37.3379 1.6123 54.3315 1.65374C70.5334 1.65374 76.0832 24.6917 73.5966 36.6417C73.4417 37.429 74.6807 37.7605 74.8528 36.9732L74.9044 36.6914C74.9935 36.7312 75.0936 36.7422 75.1897 36.7228C75.2858 36.7034 75.3729 36.6546 75.4379 36.5837C75.9176 36.1339 76.5422 35.8552 77.2086 35.7934C77.875 35.7316 78.5434 35.8905 79.1033 36.2439C77.5684 36.7708 76.1584 37.5879 74.956 38.6472C68.4168 44.4481 67.1175 54.1108 69.9053 61.9835C65.2676 59.4974 58.7885 63.7901 56.7665 68.6132C56.7235 68.7126 56.6977 68.8121 56.6632 68.9115C56.9644 62.5553 57.0763 56.1826 57.016 49.8513C61.2265 46.8463 64.6428 42.9285 66.9884 38.4151C67.3756 37.6693 66.2313 37.0146 65.8183 37.7522C63.5483 41.8637 60.5622 45.5694 56.9902 48.7077C56.8525 38.4897 56.2416 28.3049 55.1403 18.261C55.0542 17.4323 53.6948 17.3908 53.755 18.261C54.5638 31.3628 54.8736 44.3404 54.7445 57.3013C49.0155 54.6135 44.5047 50.0008 42.0617 44.3321C41.7864 43.7106 40.6764 44.1581 40.9087 44.7962C42.0551 47.9009 43.884 50.7307 46.2704 53.092C48.6568 55.4534 51.5444 57.2906 54.7359 58.4781C54.6584 64.3288 54.4606 70.1794 54.2024 76.0301C50.951 73.9844 48.0826 71.4234 45.7186 68.4557C45.2884 67.9088 44.3247 68.4557 44.7377 69.011C47.1128 72.4341 50.3518 75.22 54.1508 77.1074C53.7292 86.074 53.1097 95.0572 52.232 104.09C51.5265 103.836 50.8123 103.593 50.0896 103.361ZM53.0494 104.38C54.2454 96.8555 55.1661 89.2231 55.82 81.5493C56.1983 83.0192 56.7497 84.4428 57.4635 85.7923C56.7321 92.107 55.0629 98.5129 54.8822 104.853C54.8867 104.917 54.9142 104.978 54.9602 105.026C55.0062 105.073 55.0678 105.104 55.1345 105.113C55.2013 105.122 55.2691 105.108 55.3266 105.074C55.3841 105.04 55.4277 104.988 55.4501 104.927C57.4118 99.5405 57.9281 93.3252 58.5476 87.5657C60.1141 89.8946 62.2579 91.8114 64.7857 93.1429C62.4818 97.6773 59.489 101.856 55.9061 105.54C54.9596 105.109 53.9873 104.712 53.0494 104.38ZM113.28 65.1658C112.849 65.7541 113.83 66.4834 114.329 65.9364C114.828 65.3895 115.121 65.058 115.517 64.6105C116.15 64.5142 116.794 64.5142 117.427 64.6105C125.377 66.616 121.669 72.533 119.862 75.7815C118.426 78.5097 116.585 81.0221 114.398 83.2398C110.535 86.9027 105.037 87.5325 101.027 90.8722C100.313 91.4606 101.259 92.6539 102.034 92.1319C102.309 91.9413 102.602 91.7755 102.894 91.6015C104.125 91.5387 105.341 91.887 106.336 92.5876C106.306 92.6531 106.288 92.7233 106.284 92.7948C105.622 105.897 84.3864 101.04 76.2983 99.0018C76.3804 98.8502 76.4045 98.6756 76.3665 98.5085C76.3284 98.3415 76.2307 98.1926 76.0902 98.088C75.9498 97.9833 75.7757 97.9295 75.5982 97.936C75.4208 97.9425 75.2513 98.0088 75.1195 98.1234C71.0239 101.795 66.6787 105.118 62.4368 108.607C61.5763 108.142 60.7159 107.678 59.8555 107.239C66.1366 100.933 72.1424 94.2119 77.8471 87.2176C83.2629 88.8073 88.9329 89.439 94.5825 89.0822C94.7309 89.0652 94.8677 88.9963 94.967 88.8886C95.0662 88.7809 95.121 88.642 95.121 88.498C95.121 88.354 95.0662 88.215 94.967 88.1073C94.8677 87.9997 94.7309 87.9308 94.5825 87.9137C89.159 88.0565 83.7372 87.5752 78.4322 86.4801C82.5537 81.4001 86.503 76.1544 90.3148 70.8258C96.441 71.8534 103.669 69.9225 108.84 66.7735C108.953 66.6917 109.031 66.5729 109.059 66.4395C109.087 66.3061 109.063 66.1675 108.992 66.0499C108.921 65.9323 108.807 65.8439 108.673 65.8017C108.539 65.7594 108.393 65.766 108.263 65.8204C105.474 67.2004 102.541 68.2921 99.5128 69.0773C96.675 69.6113 93.798 69.9299 90.9085 70.0303C98.7424 58.975 105.949 47.5193 112.497 35.7135C112.595 35.552 112.622 35.3595 112.573 35.1785C112.524 34.9974 112.402 34.8426 112.234 34.7481C112.067 34.6536 111.867 34.6271 111.679 34.6745C111.491 34.7219 111.33 34.8393 111.232 35.0009C105.131 45.1359 98.6782 54.8898 91.9324 64.3785C89.6024 61.9517 87.8042 59.0975 86.6452 55.9864C85.4861 52.8753 84.9901 49.5712 85.1866 46.2713C85.1866 45.3928 83.8443 45.4426 83.7755 46.2713C83.4838 49.7716 84.0119 53.2903 85.321 56.5677C86.63 59.8451 88.6865 62.7976 91.3387 65.2072C85.4246 73.4942 79.3041 81.6542 72.9771 89.6872C71.2562 84.4912 69.1223 79.4361 67.5477 74.1821C67.5261 74.1052 67.4735 74.0397 67.4017 74C67.3299 73.9604 67.2447 73.9499 67.1648 73.9708C67.085 73.9916 67.017 74.0422 66.9758 74.1114C66.9347 74.1805 66.9237 74.2626 66.9454 74.3395C68.3909 79.7344 69.6816 85.2619 71.8413 90.4496C71.8965 90.5797 71.9929 90.6899 72.1166 90.7645C67.8546 96.1677 63.5123 101.554 59.0897 106.924C58.3325 106.56 57.5667 106.212 56.7837 105.872C60.8464 102.291 64.1055 97.9484 66.3603 93.1097C66.6787 92.4219 65.8183 91.8087 65.3278 92.1816C59.0036 87.9718 56.1728 81.5327 57.1193 74.1489C57.9195 67.8839 65.0181 57.2848 71.7897 65.721C72.2629 66.3011 73.1578 65.5553 72.8222 64.9586C72.4924 64.3608 72.0879 63.8042 71.6176 63.3012C69.6214 57.4008 69.3202 51.2186 72.0736 45.4094C75.2314 38.73 85.6254 32.5562 90.3406 41.7382C90.7364 42.5089 92.1131 41.9703 91.7947 41.1498C91.6253 40.7087 91.424 40.2795 91.1924 39.8654C92.1389 33.5092 94.6857 27.6834 99.7967 23.2912C106.68 17.2748 119.337 14.1755 124.913 23.5647C133.405 37.8682 121.626 53.8705 113.28 65.1658Z" fill="black" fill-opacity="0.3"/>
<path d="M35.3848 154.277C26.3761 146.719 16.2058 140.313 4.40926 137.868C3.84998 137.752 3.60904 138.564 4.17693 138.697C15.8788 141.515 25.4726 147.639 34.576 155.08C35.1267 155.553 35.9613 154.766 35.3848 154.277Z" fill="black" fill-opacity="0.3"/>
<path d="M32.6142 156.091C27.5815 152.576 22.0647 149.753 16.223 147.705C15.7756 147.539 15.5863 148.227 16.0251 148.393C21.7346 150.582 27.1393 153.446 32.1152 156.92C32.6314 157.285 33.1219 156.456 32.6142 156.091Z" fill="black" fill-opacity="0.3"/>
<path d="M75.1883 152.345C67.019 142.781 56.5769 135.254 44.7462 130.401C44.2644 130.202 43.8428 130.882 44.3246 131.089C55.9422 136.142 66.2053 143.688 74.3279 153.149C74.8356 153.771 75.6788 152.934 75.1883 152.345Z" fill="black" fill-opacity="0.3"/>
<path d="M74.6377 144.746C71.3435 141.284 67.5261 138.32 63.3144 135.954C63.2279 135.919 63.1312 135.916 63.0424 135.945C62.9536 135.973 62.8786 136.032 62.8314 136.11C62.7841 136.188 62.7677 136.28 62.7854 136.368C62.803 136.457 62.8534 136.536 62.9272 136.592C66.9915 139.046 70.681 142.033 73.8891 145.467C74.3795 145.965 75.1453 145.227 74.6377 144.746Z" fill="black" fill-opacity="0.3"/>
<path d="M53.6518 124.601C43.4297 116.869 31.4181 111.632 18.6408 109.336C18.1074 109.236 17.875 110.024 18.4171 110.165C30.9904 112.528 42.7924 117.76 52.8344 125.421C53.4109 125.86 54.2369 125.073 53.6518 124.601Z" fill="black" fill-opacity="0.3"/>
<path d="M57.0074 121.832C51.0274 117.374 44.1784 113.885 37.3465 110.802C36.9163 110.603 36.5377 111.217 36.9766 111.416C43.86 114.623 50.124 118.6 56.4567 122.744C57.0504 123.134 57.5495 122.23 57.0074 121.832Z" fill="black" fill-opacity="0.3"/>
</svg>
