<svg width="151" height="110" viewBox="0 0 151 110" fill="none" xmlns="http://www.w3.org/2000/svg">
<path d="M127.702 78.44C129.697 77.9423 131.446 76.7834 132.642 75.167C133.837 73.5506 134.403 71.5801 134.24 69.6017C134.236 69.4967 134.209 69.3937 134.159 69.3003C134.109 69.2069 134.038 69.1254 133.951 69.0617C133.865 68.9981 133.764 68.9538 133.657 68.9323C133.551 68.9107 133.44 68.9124 133.334 68.9372C130.253 69.3899 127.265 70.3036 124.477 71.6452C125.807 66.7886 125.378 61.6404 123.261 57.0503C123.144 57.0589 123.027 57.0363 122.922 56.9851C122.818 56.9339 122.73 56.8559 122.669 56.7598C122.607 56.6637 122.574 56.5532 122.574 56.4403C122.573 56.3275 122.605 56.2166 122.665 56.12C121.969 55.4941 121.082 55.0993 120.135 54.9932C119.189 54.8871 118.232 55.0753 117.404 55.5302C117.311 55.605 117.248 55.7096 117.228 55.8249C117.208 55.9403 117.231 56.0589 117.293 56.1592C117.356 56.2596 117.454 56.3351 117.569 56.372C117.684 56.409 117.809 56.4051 117.922 56.3609L118.284 56.2113C118.314 56.2564 118.349 56.2982 118.388 56.3359C118.325 56.3554 118.266 56.3871 118.217 56.4291C118.167 56.4711 118.126 56.5225 118.098 56.5801C118.07 56.6378 118.054 56.7004 118.052 56.7642C118.05 56.8279 118.061 56.8914 118.086 56.9506C119.457 61.104 120.837 65.2573 120.872 69.4107C120.109 67.7918 118.978 66.3586 117.563 65.217C116.147 64.0754 114.484 63.2546 112.695 62.8152C112.56 62.7824 112.417 62.7928 112.288 62.8448C112.159 62.8967 112.051 62.9875 111.981 63.1034C111.91 63.2193 111.88 63.3542 111.895 63.4879C111.91 63.6216 111.97 63.747 112.066 63.8452C113.186 64.8657 114.045 66.1224 114.576 67.5167C115.024 68.7461 115.024 70.0669 115.438 71.2963C115.544 71.5843 115.676 71.8624 115.835 72.127C109.625 70.4656 103.053 72.9576 99.3098 78.3736C98.9131 78.9467 99.5685 79.5531 100.172 79.4451C104.217 78.7225 107.529 79.3122 111.505 79.8605C112.343 79.9875 113.194 80.0265 114.041 79.9768C110.832 83.125 112.695 89.2969 113.558 93.1429C113.713 93.8572 114.696 93.7243 114.921 93.1429C116.075 90.2559 117.608 87.523 119.483 85.0106C119.983 84.3536 120.427 83.6592 120.811 82.934C122.252 86.7966 130.298 87.5608 132.938 89.87C133.047 89.9684 133.187 90.0302 133.336 90.0462C133.485 90.0623 133.635 90.0317 133.765 89.9591C133.895 89.8864 133.996 89.7755 134.056 89.6428C134.115 89.5101 134.128 89.3626 134.093 89.2221C132.834 85.3346 131.342 80.8158 127.702 78.44ZM121.432 56.4356C121.031 56.6099 120.585 56.6643 120.151 56.5918C119.718 56.5192 119.317 56.323 119 56.0286C119.835 55.8707 120.701 56.0157 121.432 56.4356ZM114.532 64.7423C116 65.4084 117.312 66.3549 118.389 67.5244C119.465 68.6939 120.283 70.062 120.794 71.5455C120.682 72.4766 120.485 73.3966 120.207 74.295C120.187 74.2708 120.164 74.2486 120.138 74.2285L119.492 73.8464C119.496 73.7795 119.48 73.7128 119.446 73.6541C119.413 73.5953 119.363 73.5468 119.302 73.5142C118.948 73.3148 118.586 73.1404 118.232 72.9742C117.622 72.4889 117.135 71.875 116.809 71.18C116.275 70.0171 116.309 68.688 115.947 67.4835C115.612 66.5104 115.127 65.5918 114.507 64.7589L114.532 64.7423ZM121.587 80.0598C121.599 79.9982 121.59 79.9346 121.563 79.8779C121.535 79.8213 121.489 79.7745 121.432 79.7442C121.432 79.6113 121.432 79.4784 121.38 79.3455C121.208 78.5148 119.949 78.8803 120.095 79.686C120.604 82.5103 117.62 85.1103 116.266 87.3282C115.626 88.3865 115.051 89.4792 114.541 90.601C113.679 86.647 112.454 81.7295 116.404 79.495C116.454 79.4679 116.498 79.4311 116.533 79.387L116.844 79.279C117.706 78.9052 116.956 77.7174 116.111 78.0745C113.092 79.3621 109.694 77.8336 106.624 77.5928C104.998 77.4801 103.365 77.5302 101.751 77.7423C105.632 73.3397 111.367 72.0273 117.068 73.5889C117.81 74.2303 118.637 74.7749 119.526 75.2087C119.633 75.2587 119.753 75.2789 119.871 75.2669C119.551 76.1296 119.153 76.9634 118.681 77.7589C118.617 77.869 118.601 77.9992 118.636 78.1207C118.672 78.2422 118.756 78.3451 118.871 78.4068C118.985 78.4685 119.12 78.4839 119.246 78.4496C119.372 78.4153 119.479 78.3342 119.543 78.2241C123.916 71.7698 122.286 63.9033 119.457 57.1583C119.884 57.3751 120.359 57.4884 120.841 57.4884C121.324 57.4884 121.799 57.3751 122.226 57.1583C122.2 57.2161 122.187 57.2782 122.187 57.3411C122.187 57.4039 122.2 57.466 122.226 57.5238C123.527 60.6344 124.127 63.9757 123.987 67.3265C123.848 70.6773 122.971 73.9613 121.415 76.9614C121.199 77.4017 121.846 77.7921 122.105 77.3519C122.889 76.0628 123.539 74.7022 124.045 73.2899C124.103 73.2975 124.161 73.2975 124.218 73.2899C126.948 71.9862 129.849 71.0472 132.843 70.4988C132.763 72.2187 132.1 73.8659 130.955 75.1878C129.81 76.5097 128.246 77.4334 126.503 77.817C126.443 77.817 126.4 77.7506 126.34 77.7257C125.607 77.41 124.951 78.4068 125.693 78.7889C129.341 80.6995 131.049 84.1467 132.239 87.7768C128.073 85.6004 120.82 85.3678 121.562 80.0765L121.587 80.0598Z" fill="black" fill-opacity="0.3"/>
<path d="M150.618 79.3866C148.246 62.1585 132.066 49.7732 114.343 50.3962C114.287 50.2789 114.195 50.181 114.079 50.1156C113.963 50.0502 113.829 50.0206 113.696 50.0308C96.3257 50.6953 78.1103 62.225 80.1457 80.8652C82.1208 98.9488 100.638 109.299 118.189 109.017C133.671 108.759 152.938 96.1993 150.618 79.3866ZM118.189 107.247C102.993 107.438 86.528 99.5386 82.6814 84.3457C77.7912 65.0409 95.903 52.8467 113.73 51.4927C113.845 51.4864 113.957 51.4546 114.057 51.3999C114.158 51.3451 114.243 51.2689 114.308 51.1771C130.298 51.6755 144.633 61.1451 148.488 76.5789C152.723 93.6575 134.309 107.04 118.189 107.247Z" fill="black" fill-opacity="0.3"/>
<path d="M137.69 62.1919C136.687 60.6558 135.376 59.3287 133.832 58.2886C132.289 57.2486 130.545 56.5168 128.703 56.1363C128.642 56.1298 128.58 56.1443 128.53 56.1774C128.479 56.2104 128.442 56.2597 128.425 56.3166C128.409 56.3735 128.414 56.4342 128.439 56.4879C128.465 56.5416 128.509 56.5848 128.565 56.6098C132.042 57.5414 135.047 59.6619 137.017 62.574C137.302 62.9644 137.957 62.5906 137.69 62.1919Z" fill="black" fill-opacity="0.3"/>
<path d="M135.577 62.0253L132.17 59.7825C131.816 59.5499 131.506 60.0899 131.842 60.3225L135.206 62.6483C135.594 62.9142 135.973 62.2912 135.577 62.0253Z" fill="black" fill-opacity="0.3"/>
<path d="M107.046 102.712C102.892 102.067 99.0861 100.088 96.248 97.0963C95.9548 96.7889 95.4977 97.2375 95.7737 97.5448C98.6045 100.734 102.509 102.862 106.805 103.559C107.374 103.642 107.624 102.803 107.046 102.712Z" fill="black" fill-opacity="0.3"/>
<path d="M111.773 102.089C108.702 100.981 105.638 99.8376 102.579 98.6581C102.268 98.5418 102.044 99.0568 102.354 99.1814C105.379 100.411 108.4 101.654 111.419 102.911C111.476 102.943 111.54 102.962 111.606 102.968C111.672 102.974 111.738 102.966 111.8 102.946C111.863 102.925 111.92 102.892 111.968 102.848C112.017 102.805 112.055 102.752 112.08 102.693C112.105 102.634 112.117 102.571 112.115 102.507C112.113 102.444 112.097 102.381 112.068 102.324C112.039 102.267 111.997 102.216 111.946 102.176C111.896 102.135 111.836 102.106 111.773 102.089Z" fill="black" fill-opacity="0.3"/>
<path d="M30.1027 9.68889C30.0773 9.7117 30.0542 9.73672 30.0337 9.76365C30.5149 7.29984 30.2422 4.75444 29.2488 2.43715C29.1915 2.30888 29.0965 2.19959 28.9754 2.1228C28.8543 2.04601 28.7125 2.00508 28.5675 2.00508C28.4225 2.00508 28.2807 2.04601 28.1596 2.1228C28.0385 2.19959 27.9434 2.30888 27.8861 2.43715C26.9289 5.02657 25.593 7.47121 23.9188 9.69719C23.0563 10.7937 21.8833 11.8154 21.2451 13.0199C20.6202 9.32731 21.022 5.54123 22.4094 2.04673C22.4932 1.94626 22.5549 1.83037 22.5906 1.70616C22.6115 1.59942 22.6173 1.49044 22.6078 1.3822C22.6504 1.29623 22.6704 1.2015 22.666 1.10634C22.6616 1.01119 22.6331 0.918522 22.5828 0.836488C22.5326 0.754455 22.4622 0.685565 22.3778 0.635878C22.2934 0.586191 22.1977 0.557228 22.099 0.551532C20.7966 -0.187763 17.4244 0.3854 16.6913 0.676134C16.5504 0.726068 16.4357 0.827576 16.3722 0.958561C16.2518 0.976981 16.1408 1.03211 16.0554 1.11585C15.97 1.19959 15.9148 1.30751 15.8978 1.42373C14.9732 6.75635 15.8817 12.2339 18.4852 17.0237C15.9048 16.2118 13.1113 16.2911 10.585 17.248C6.84187 18.6684 4.72882 22.9962 0.51134 23.154C-0.204509 23.154 -0.135512 24.1508 0.51134 24.3003C2.78499 24.829 5.13153 25.0057 7.46285 24.8237C-4.82735 35.5642 2.28803 56.6466 12.7239 66.4236C24.1344 77.0976 43.7728 73.451 55.7267 65.5098C69.3192 56.4888 75.0373 39.5763 68.2411 24.8071C62.3245 11.9898 43.7901 -0.59479 30.1027 9.68889ZM19.4167 1.28252C19.7797 1.26593 20.1436 1.28262 20.5034 1.33236C20.6759 1.33236 20.857 1.37389 21.0295 1.40712H21.1761L21.1157 1.53172C20.5088 1.77991 19.8508 1.89074 19.1924 1.85568C18.6093 1.86064 18.0284 1.78511 17.4675 1.6314C18.0991 1.43534 18.7541 1.31809 19.4167 1.28252ZM6.66075 21.4761C10.1106 18.3694 13.8969 17.0985 18.6836 17.8045C18.7594 17.8149 18.8365 17.797 18.8992 17.7547C19.2528 18.3611 19.6064 18.9591 20.0032 19.5323C20.2705 19.9144 20.9864 19.5323 20.7535 19.1336C17.8434 14.0276 16.5624 8.20801 17.0708 2.40392C18.0353 2.81158 19.0938 2.96908 20.1411 2.86079L20.5206 2.80264C19.5697 5.28563 19.2003 7.94036 19.4388 10.5769C19.6774 13.2134 20.518 15.7666 21.9006 18.0537C22.1421 18.4358 22.7631 18.0537 22.6078 17.6716C22.2738 16.8566 21.9859 16.0247 21.7453 15.1796C21.8666 15.1411 21.9751 15.0724 22.0599 14.9805C22.1447 14.8886 22.2028 14.7768 22.2283 14.6563C22.7803 12.4799 25.1952 10.5196 26.4458 8.64225C27.2293 7.38262 27.9098 6.06619 28.4812 4.70487C28.9316 6.51168 28.9538 8.39296 28.5462 10.2092C28.1386 12.0254 27.3117 13.7299 26.1267 15.1962C25.8162 15.4039 25.4971 15.6032 25.1952 15.8192C25.0727 15.9401 24.9986 16.0988 24.9861 16.2673C24.9735 16.4358 25.0234 16.6031 25.1268 16.7395C25.2302 16.8759 25.3804 16.9727 25.5508 17.0125C25.7213 17.0524 25.9008 17.0328 26.0577 16.9572C32.095 12.671 39.3397 10.4033 46.4292 12.8039C44.5294 13.4912 42.6991 14.3448 40.9612 15.354C36.6229 17.855 31.6176 19.0739 26.5665 18.8595C26.4367 18.8549 26.3101 18.8991 26.2135 18.9828C26.1169 19.0665 26.0579 19.1832 26.0491 19.308C25.7731 19.2333 25.4971 19.1419 25.1866 19.0837C24.3241 18.9259 24.0826 20.2633 24.971 20.4211C31.1204 21.501 30.2579 29.4173 31.1376 34.4843C29.3351 33.4211 27.2393 32.8728 25.6523 31.4524C23.2202 29.2677 22.6596 26.1112 22.4526 23.046C22.4526 22.855 22.4526 22.6556 22.4094 22.4563V21.9994C22.4094 21.9994 22.4094 21.9994 22.4094 21.9246C22.4094 21.6256 22.3577 21.3432 22.2973 21.0275C22.168 20.3298 21.0209 20.4294 21.1416 21.1521C22.4871 29.4588 15.7167 32.3578 10.4556 36.9348C11.7838 31.4275 11.0248 24.6908 17.0018 21.9163C17.0506 21.898 17.0952 21.8705 17.133 21.8355C17.1708 21.8004 17.201 21.7585 17.2218 21.7122C17.2427 21.6658 17.2538 21.616 17.2545 21.5655C17.2552 21.515 17.2455 21.4648 17.226 21.4179C17.433 21.2767 17.6572 21.1521 17.8642 21.0026C17.9786 20.9222 18.0551 20.8013 18.077 20.6666C18.0988 20.5318 18.0642 20.3942 17.9807 20.2841C17.8972 20.1739 17.7717 20.1002 17.6318 20.0792C17.4919 20.0582 17.349 20.0915 17.2346 20.1719C15.2971 21.622 13.0785 22.6849 10.7089 23.2983C8.33926 23.9116 5.86633 24.0631 3.43511 23.7438C4.63356 23.1656 5.72368 22.3992 6.66075 21.4761ZM53.95 64.8287C41.9961 72.2216 22.9787 75.3615 12.4997 63.998C2.77101 53.4734 -2.14507 35.6805 8.95492 24.6409C10.2774 24.4398 11.575 24.1085 12.8274 23.6524C9.60177 27.5815 10.2917 34.6089 8.35119 38.945C8.29634 39.0883 8.2951 39.2456 8.34769 39.3897C8.40028 39.5337 8.5034 39.6556 8.63929 39.7344C8.77517 39.8131 8.93531 39.8437 9.09211 39.8209C9.24891 39.7981 9.39254 39.7234 9.49827 39.6096C13.6726 34.9994 19.8479 32.2831 21.8575 27.0083C22.0682 28.3335 22.5395 29.6078 23.246 30.763C25.2556 33.9361 28.8693 34.4345 31.7931 36.5195C31.9046 36.6026 32.0413 36.6484 32.1824 36.6498C32.3234 36.6512 32.461 36.6082 32.5743 36.5273C32.6876 36.4464 32.7704 36.3321 32.8099 36.2017C32.8495 36.0713 32.8438 35.9321 32.7936 35.8051C30.991 31.062 32.7936 22.6058 27.4204 19.848C30.2812 20.1798 33.182 19.9538 35.9502 19.1834C40.5472 17.871 44.2385 14.6978 48.9735 13.7176C49.1332 13.6749 49.2767 13.5887 49.3869 13.4694C49.4971 13.3501 49.5692 13.2028 49.5947 13.045C49.6202 12.8872 49.5979 12.7258 49.5306 12.5799C49.4632 12.434 49.3537 12.3099 49.215 12.2224C42.1427 9.07419 34.829 10.2787 28.4295 13.809C29.1015 12.7117 29.5931 11.5208 29.8871 10.2787C29.9126 10.3728 29.9617 10.4596 30.03 10.5313C30.0983 10.6031 30.1838 10.6577 30.2789 10.6905C30.3741 10.7232 30.4762 10.7331 30.5762 10.7192C30.6763 10.7054 30.7713 10.6682 30.853 10.6109C44.963 0.767506 63.5406 15.0052 67.9392 28.3042C72.562 42.2677 66.6369 56.9872 53.95 64.8287Z" fill="black" fill-opacity="0.3"/>
<path d="M27.153 68.6082C23.2978 67.8689 19.201 67.0632 16.5015 64.0811C16.2341 63.782 15.7253 64.1309 15.984 64.4549C18.5714 67.7775 22.9786 68.7079 27.0322 69.3558C27.1278 69.357 27.2205 69.3249 27.2935 69.2655C27.3665 69.2061 27.4147 69.1234 27.4294 69.0325C27.4441 68.9415 27.4242 68.8486 27.3734 68.7706C27.3227 68.6927 27.2444 68.635 27.153 68.6082Z" fill="black" fill-opacity="0.3"/>
<path d="M28.645 67.0961C25.855 67.2036 23.1032 66.4434 20.7965 64.9281C20.7366 64.893 20.6654 64.8805 20.5965 64.8928C20.5276 64.9052 20.4658 64.9417 20.4231 64.9952C20.3804 65.0487 20.3596 65.1155 20.3649 65.1828C20.3701 65.2502 20.401 65.3132 20.4515 65.36C22.7478 67.2755 25.7231 68.2634 28.7571 68.1178C29.4299 68.1012 29.3264 67.0463 28.645 67.0961Z" fill="black" fill-opacity="0.3"/>
<path d="M53.1219 13.1608C52.7252 12.9615 52.3285 13.5845 52.7166 13.8171C55.7352 15.6196 57.8914 17.9704 60.2546 20.4624C60.3387 20.5577 60.4575 20.6183 60.5865 20.632C60.7156 20.6456 60.8452 20.6112 60.9488 20.5359C61.0524 20.4605 61.1222 20.3498 61.1438 20.2265C61.1655 20.1032 61.1374 19.9766 61.0653 19.8726C59.3145 16.9487 56.1147 14.7391 53.1219 13.1608Z" fill="black" fill-opacity="0.3"/>
<path d="M60.5046 21.0938C58.9894 19.0136 56.7387 17.5369 54.1741 16.9404C53.7687 16.8407 53.5876 17.4638 53.9671 17.6133C56.2049 18.4585 58.1299 19.9278 59.4955 21.8331C59.9785 22.4478 60.9531 21.7334 60.5046 21.0938Z" fill="black" fill-opacity="0.3"/>
</svg>
